<svg width="179" height="310" viewBox="0 0 179 310" fill="none" xmlns="http://www.w3.org/2000/svg">
<g clip-path="url(#clip0_234_10)">
<path d="M5.86312 313.034C11.9496 288.696 17.7254 264.182 24.2768 239.982C27.3031 224.633 29.9669 209.129 33.4587 193.832C35.1893 182.381 40.7464 170.698 35.9727 159.156C27.9365 138.793 29.975 116.516 30.1139 95.145C29.247 78.7737 26.6265 62.3058 28.34 45.9215C34.3294 31.294 45.9874 48.0568 42.738 57.3839C43.9027 68.0761 45.0219 84.8835 50.0755 91.7323C49.5299 78.4832 47.3184 65.2144 49.7646 51.9905C51.7026 41.0357 49.887 27.3709 57.9271 18.9376C72.6383 14.8776 67.1814 34.5932 67.7157 43.0959C67.3692 56.0272 67.8036 69.0851 69.8445 81.8776C70.7716 58.3221 69.7346 34.438 74.2093 11.1996C85.3203 -0.564845 92.1044 20.5617 89.959 29.9455C91.85 46.2855 91.4436 62.7065 91.3826 79.1105C99.4761 77.9461 99.2025 60.2844 101.933 52.1776C105.385 41.0078 99.6858 25.7713 109.208 17.4727C123.906 15.4438 120.533 35.6042 121.179 45.0064C121.615 60.4034 120.239 75.8277 116.018 90.6756C113.246 102.492 115.478 115.998 125.364 123.844C137.944 120.755 144.371 106.674 155.252 100.17C165.617 90.8389 181.668 101.41 167.872 111.763C162.322 122.505 155.545 132.477 147.187 141.337C137.075 158.375 117.383 167.246 107.745 184.594C103.22 199.973 102.792 216.301 100.537 232.144C97.7581 254.439 94.8162 276.824 96.4895 299.34C95.1964 304.978 101.672 317.034 91.7813 314.226C63.5026 314.026 35.1919 314.732 6.93573 313.694L6.05425 313.406L5.8595 313.031L5.86312 313.034Z" fill="#DFA48A" stroke="black" stroke-width="1.55917"/>
<g filter="url(#filter0_f_234_10)">
<path d="M149.765 119.434C145.702 122.614 151.755 129.33 155.425 129.34" stroke="#17182B" stroke-width="1.38377" stroke-linecap="round" stroke-linejoin="round"/>
</g>
<g filter="url(#filter1_f_234_10)">
<path d="M144.32 127.157C143.461 132.4 145.18 134.945 150.452 136.119" stroke="#17182B" stroke-width="1.38377" stroke-linecap="round" stroke-linejoin="round"/>
</g>
<g filter="url(#filter2_f_234_10)">
<path d="M136.085 130.755C133.813 139.786 140.547 139.83 147.187 141.337" stroke="#17182B" stroke-width="1.38377" stroke-linecap="round" stroke-linejoin="round"/>
</g>
<g filter="url(#filter3_f_234_10)">
<path d="M127.339 138.478C124.05 144.884 132.055 149.024 137.459 148.855C138.488 148.855 139.517 148.855 140.547 148.855" stroke="#17182B" stroke-width="1.38377" stroke-linecap="round" stroke-linejoin="round"/>
</g>
<g filter="url(#filter4_f_234_10)">
<path d="M122.11 148.599C120.669 154.4 127.954 159.032 132.016 158.033" stroke="#17182B" stroke-width="1.38377" stroke-linecap="round" stroke-linejoin="round"/>
</g>
<g filter="url(#filter5_f_234_10)">
<path d="M115.938 154.987C114.834 159.834 117.533 167.06 122.07 165.836" stroke="#17182B" stroke-width="1.38377" stroke-linecap="round" stroke-linejoin="round"/>
</g>
<g filter="url(#filter6_f_234_10)">
<path d="M38.4039 87.3586C38.9167 90.6581 37.306 95.2251 39.3473 97.736" stroke="#17182B" stroke-width="1.38377" stroke-linecap="round" stroke-linejoin="round"/>
</g>
<g filter="url(#filter7_f_234_10)">
<path d="M33.687 93.4907C36.616 94.5797 39.3828 91.38 42.1775 93.019" stroke="#17182B" stroke-width="1.38377" stroke-linecap="round" stroke-linejoin="round"/>
</g>
<g filter="url(#filter8_f_234_10)">
<path d="M54.4816 80.7548C58.2879 79.1473 60.4409 78.3835 64.6055 78.6912" stroke="#17182B" stroke-width="1.38377" stroke-linecap="round" stroke-linejoin="round"/>
</g>
<g filter="url(#filter9_f_234_10)">
<path d="M59.1986 74.6228C59.2044 78.0817 58.6569 80.4084 58.6652 83.865" stroke="#17182B" stroke-width="1.38377" stroke-linecap="round" stroke-linejoin="round"/>
</g>
<g filter="url(#filter10_f_234_10)">
<path d="M81.3684 71.3209C80.1252 74.6848 78.2523 78.6296 80.425 81.6983" stroke="#17182B" stroke-width="1.38377" stroke-linecap="round" stroke-linejoin="round"/>
</g>
<g filter="url(#filter11_f_234_10)">
<path d="M76.1797 77.453C78.4765 77.9406 81.9703 76.3526 85.157 78.8531" stroke="#17182B" stroke-width="1.38377" stroke-linecap="round" stroke-linejoin="round"/>
</g>
<g filter="url(#filter12_f_234_10)">
<path d="M78.6852 37.8308C79.076 39.2196 77.5726 40.7228 78.6852 41.9667" stroke="#17182B" stroke-width="1.38377" stroke-linecap="round" stroke-linejoin="round"/>
</g>
<g filter="url(#filter13_f_234_10)">
<path d="M76.6839 40.0989C77.6558 39.8855 79.1317 39.1976 79.8859 40.2323" stroke="#17182B" stroke-width="1.38377" stroke-linecap="round" stroke-linejoin="round"/>
</g>
<g filter="url(#filter14_f_234_10)">
<path d="M58.6727 45.1687C58.6689 46.4317 57.8665 47.6304 58.2725 48.9043" stroke="#17182B" stroke-width="1.38377" stroke-linecap="round" stroke-linejoin="round"/>
</g>
<g filter="url(#filter15_f_234_10)">
<path d="M60.4071 47.1699C60.392 46.188 57.2214 46.2893 57.0717 47.1699" stroke="#17182B" stroke-width="1.38377" stroke-linecap="round" stroke-linejoin="round"/>
</g>
<g filter="url(#filter16_f_234_10)">
<path d="M34.2575 67.5826C33.8662 68.4886 33.5101 69.7354 34.1241 70.6512" stroke="#17182B" stroke-width="1.38377" stroke-linecap="round" stroke-linejoin="round"/>
</g>
<g filter="url(#filter17_f_234_10)">
<path d="M32.5231 69.7173C33.0441 68.9676 34.1067 69.454 34.7912 69.317" stroke="#17182B" stroke-width="1.38377" stroke-linecap="round" stroke-linejoin="round"/>
</g>
<g filter="url(#filter18_f_234_10)">
<path d="M44.0995 112.09C44.0397 109.971 47.2169 105.346 48.3103 107.879C49.6398 108.701 52.316 109.613 54.2757 111.388C57.6657 112.435 60.0745 116.816 63.0483 119.459C66.2145 119.203 65.6189 121.681 67.4149 122.93C68.2396 123.501 69.7907 127.325 70.7682 128.231C73.5087 128.069 74.1558 132.041 76.0318 133.846C76.9252 136.331 78.712 138.228 79.5409 140.162C80.1573 141.018 82.4065 143.136 82.699 145.075C84.5722 147.311 84.6093 149.834 85.8572 152.444C89.1142 154.571 88.3935 158.616 90.4189 161.567C91.6532 163.049 92.5217 164.861 95.3316 165.076C96.4304 166.617 100.057 163.679 102.35 163.673C103.419 163.426 104.156 162.725 104.455 162.269" stroke="#17182B" stroke-width="1.38377" stroke-linecap="round" stroke-linejoin="round"/>
</g>
<g filter="url(#filter19_f_234_10)">
<path d="M104.455 162.269H104.806" stroke="#17182B" stroke-width="1.38377" stroke-linecap="round" stroke-linejoin="round"/>
</g>
<g filter="url(#filter20_f_234_10)">
<path d="M54.6266 160.865C57.3999 161.759 58.7499 164.312 61.2938 162.971C63.2082 161.763 63.3929 159.448 64.8029 157.707C65.9357 156.109 69.3082 154.534 70.0665 152.795C72.2605 151.436 72.5018 147.572 74.2773 148.233C77.1634 145.414 78.5635 143.473 80.5936 140.864C83.1697 140.608 82.9303 138.258 84.4551 136.553C85.3857 135.514 87.4862 133.522 88.3135 131.389C89.3219 129.877 90.8578 126.729 90.9028 125.74C92.7206 124.462 93.2633 121.947 94.6298 119.81C94.8699 121.146 96.9975 114.261 98.8407 112.791C100.993 110.174 102.979 107.326 104.104 104.721C105.428 103.633 107.334 101.333 107.964 104.37C108.822 104.9 109.822 106.422 110.771 107.177" stroke="#17182B" stroke-width="1.38377" stroke-linecap="round" stroke-linejoin="round"/>
</g>
<g filter="url(#filter21_f_234_10)">
<path d="M54.2757 111.037C54.8458 114.273 51.9799 116.648 50.4158 119.108" stroke="#17182B" stroke-width="1.38377" stroke-linecap="round" stroke-linejoin="round"/>
</g>
<g filter="url(#filter22_f_234_10)">
<path d="M60.9429 117.353C61.0158 121.168 56.1759 122.687 54.6266 125.424" stroke="#17182B" stroke-width="1.38377" stroke-linecap="round" stroke-linejoin="round"/>
</g>
<g filter="url(#filter23_f_234_10)">
<path d="M67.9611 124.02C66.8448 126.744 64.1363 128.606 61.9957 130.337" stroke="#17182B" stroke-width="1.38377" stroke-linecap="round" stroke-linejoin="round"/>
</g>
<g filter="url(#filter24_f_234_10)">
<path d="M73.9264 129.986C71.6437 131.473 69.8486 134.471 67.2592 134.898" stroke="#17182B" stroke-width="1.38377" stroke-linecap="round" stroke-linejoin="round"/>
</g>
<g filter="url(#filter25_f_234_10)">
<path d="M76.0319 135.249C74.4648 136.616 73.1896 138.452 71.1192 139.109" stroke="#17182B" stroke-width="1.38377" stroke-linecap="round" stroke-linejoin="round"/>
</g>
<g filter="url(#filter26_f_234_10)">
<path d="M73.9264 141.215C73.1263 143.224 75.2822 144.23 76.3828 145.426" stroke="#17182B" stroke-width="1.38377" stroke-linecap="round" stroke-linejoin="round"/>
</g>
<g filter="url(#filter27_f_234_10)">
<path d="M65.8556 145.075C67.7885 146.648 68.2801 150.103 70.0665 151.391" stroke="#17182B" stroke-width="1.38377" stroke-linecap="round" stroke-linejoin="round"/>
</g>
<g filter="url(#filter28_f_234_10)">
<path d="M59.1884 145.075C61.2117 148.843 63.5126 154.035 66.5574 155.953" stroke="#17182B" stroke-width="1.38377" stroke-linecap="round" stroke-linejoin="round"/>
</g>
<g filter="url(#filter29_f_234_10)">
<path d="M58.1215 152.079C58.1796 155.275 62.0224 156.828 63.0341 159.798" stroke="#17182B" stroke-width="1.38377" stroke-linecap="round" stroke-linejoin="round"/>
</g>
<g filter="url(#filter30_f_234_10)">
<path d="M97.0861 156.655C94.243 156.417 91.8296 158.843 89.0153 159.462" stroke="#17182B" stroke-width="1.38377" stroke-linecap="round" stroke-linejoin="round"/>
</g>
<g filter="url(#filter31_f_234_10)">
<path d="M90.7698 149.286C90.4032 151.696 87.9154 152.208 85.8572 152.093" stroke="#17182B" stroke-width="1.38377" stroke-linecap="round" stroke-linejoin="round"/>
</g>
<g filter="url(#filter32_f_234_10)">
<path d="M87.6117 142.969C85.4067 143.01 86.0182 146.878 83.4009 145.776" stroke="#17182B" stroke-width="1.38377" stroke-linecap="round" stroke-linejoin="round"/>
</g>
<g filter="url(#filter33_f_234_10)">
<path d="M86.559 134.548C87.9225 135.773 87.8035 137.805 89.0154 139.109" stroke="#17182B" stroke-width="1.38377" stroke-linecap="round" stroke-linejoin="round"/>
</g>
<g filter="url(#filter34_f_234_10)">
<path d="M90.4189 128.231C92.0245 130.59 96.4883 132.228 96.7352 135.951" stroke="#17182B" stroke-width="1.38377" stroke-linecap="round" stroke-linejoin="round"/>
</g>
<g filter="url(#filter35_f_234_10)">
<path d="M94.9807 119.108C95.662 123.263 99.3968 126.34 101.999 128.933" stroke="#17182B" stroke-width="1.38377" stroke-linecap="round" stroke-linejoin="round"/>
</g>
<g filter="url(#filter36_f_234_10)">
<path d="M101.297 110.335C104.986 112.399 104.791 116.756 107.262 119.108" stroke="#17182B" stroke-width="1.38377" stroke-linecap="round" stroke-linejoin="round"/>
</g>
<g filter="url(#filter37_f_234_10)">
<path d="M56.3812 97.7025C61.1458 103.171 65.6887 110.087 73.441 111.233C81.7669 112.282 87.3157 106.1 90.9341 99.9125C90.9611 97.0348 93.6391 93.574 91.4717 91.0353" stroke="#17182B" stroke-width="1.38377" stroke-linecap="round" stroke-linejoin="round"/>
</g>
<g filter="url(#filter38_f_234_10)">
<path d="M59.8902 101.548C59.7112 103.978 57.6769 105.645 56.3812 107.514" stroke="#17182B" stroke-width="1.38377" stroke-linecap="round" stroke-linejoin="round"/>
</g>
<g filter="url(#filter39_f_234_10)">
<path d="M56.7321 98.0534C56.7565 100.977 53.2028 100.971 51.8195 102.966" stroke="#17182B" stroke-width="1.38377" stroke-linecap="round" stroke-linejoin="round"/>
</g>
<g filter="url(#filter40_f_234_10)">
<path d="M65.8556 107.865C66.4934 109.706 64.8669 110.713 63.7502 111.724" stroke="#17182B" stroke-width="1.38377" stroke-linecap="round" stroke-linejoin="round"/>
</g>
<g filter="url(#filter41_f_234_10)">
<path d="M74.2773 111.388C74.197 114.694 74.7336 118.168 73.2246 121.213" stroke="#17182B" stroke-width="1.38377" stroke-linecap="round" stroke-linejoin="round"/>
</g>
<g filter="url(#filter42_f_234_10)">
<path d="M81.2954 109.984C80.904 112.72 82.3447 115.321 81.9972 118.055" stroke="#17182B" stroke-width="1.38377" stroke-linecap="round" stroke-linejoin="round"/>
</g>
<g filter="url(#filter43_f_234_10)">
<path d="M87.9769 105.437C89.4932 107.453 90.7213 109.695 91.4859 112.104" stroke="#17182B" stroke-width="1.38377" stroke-linecap="round" stroke-linejoin="round"/>
</g>
<g filter="url(#filter44_f_234_10)">
<path d="M91.4717 100.159C93.3735 101.658 96.3483 103.135 95.3316 106.124" stroke="#17182B" stroke-width="1.38377" stroke-linecap="round" stroke-linejoin="round"/>
</g>
<g filter="url(#filter45_f_234_10)">
<path d="M91.8226 90.6844C91.9976 93.9529 95.5195 95.4229 96.3843 98.4043" stroke="#17182B" stroke-width="1.38377" stroke-linecap="round" stroke-linejoin="round"/>
</g>
<g filter="url(#filter46_f_234_10)">
<path d="M79.8918 169.287C83.6464 154.826 62.2016 171.444 77.4244 172.41C78.8723 172.15 79.9307 170.733 79.8918 169.287Z" stroke="#17182B" stroke-width="1.38377" stroke-linecap="round" stroke-linejoin="round"/>
</g>
<g filter="url(#filter47_f_234_10)">
<path d="M44.4504 193.149C42.2254 182.823 54.9482 186.752 61.0423 186.276C68.3136 187.904 74.7918 191.821 81.9193 193.771C87.8833 195.459 98.4575 198.85 93.3876 206.761L92.8753 206.834" stroke="#17182B" stroke-width="1.38377" stroke-linecap="round" stroke-linejoin="round"/>
</g>
<g filter="url(#filter48_f_234_10)">
<path d="M54.6267 186.116C54.4975 187.963 54.9136 194.775 53.9249 194.538" stroke="#17182B" stroke-width="1.38377" stroke-linecap="round" stroke-linejoin="round"/>
</g>
<g filter="url(#filter49_f_234_10)">
<path d="M63.0484 186.832C64.4543 190.265 63.9259 196.121 61.6448 198.061" stroke="#17182B" stroke-width="1.38377" stroke-linecap="round" stroke-linejoin="round"/>
</g>
<g filter="url(#filter50_f_234_10)">
<path d="M75.3301 191.394C75.6493 194.777 75.2172 198.245 72.5228 200.518" stroke="#17182B" stroke-width="1.38377" stroke-linecap="round" stroke-linejoin="round"/>
</g>
<g filter="url(#filter51_f_234_10)">
<path d="M85.1554 195.605C84.2196 198.529 83.2839 201.453 82.3481 204.378" stroke="#17182B" stroke-width="1.38377" stroke-linecap="round" stroke-linejoin="round"/>
</g>
<path d="M27.6337 49.5957L32.0357 54.7462L37.3642 55.09L41.0934 53.4759L40.607 45.8142L39.0831 42.5421L35.1297 40.1357L32.6373 40.4795L30.8325 42.1984L28.0823 47.0112L27.6337 49.5957Z" fill="#E0BAA9" stroke="black" stroke-width="1.25384" stroke-linecap="round" stroke-linejoin="bevel"/>
<path d="M53.2157 26.9589L55.5844 21.7437L59.3659 18.3059L66.0695 19.681L67.5117 23.2675L65.7843 30.7489L62.4745 33.4845L56.2719 32.4007L53.2157 26.9589Z" fill="#E0BAA9" stroke="black" stroke-width="1.25384" stroke-linecap="round" stroke-linejoin="bevel"/>
<path d="M74.8358 10.0553L73.4607 15.04L75.0077 18.6497L78.4454 22.0875L81.4115 24.0306L85.4697 22.7604L86.5303 19.2702L86.5242 11.9461L83.9459 8.68018L81.3675 7.82074L76.8985 8.68018L74.8358 10.0553Z" fill="#E0BAA9" stroke="black" stroke-width="1.25384" stroke-linecap="round" stroke-linejoin="bevel"/>
<path d="M106.291 21.0561L105.006 23.7308L107.666 29.1349L110.962 32.0947L117.225 31.3023L119.04 23.0201L117.808 19.8529L112.995 17.4465H109.213L106.291 21.0561Z" fill="#E0BAA9" stroke="black" stroke-width="1.25384" stroke-linecap="round" stroke-linejoin="bevel"/>
<path d="M168.343 97.8901L161.124 105.797L159.736 110.634L162.842 112.844L166.796 113.704L168.343 111.641L171.36 108.707L173.26 105.134L172.425 100.389L170.062 98.2339L168.343 97.8901Z" fill="#E0BAA9" stroke="black" stroke-width="1.25384" stroke-linecap="round" stroke-linejoin="bevel"/>
<path d="M5.86312 313.034C11.9496 288.696 17.7254 264.182 24.2768 239.982C27.3031 224.633 29.9669 209.129 33.4587 193.832C35.1893 182.381 40.7464 170.698 35.9727 159.156C27.9365 138.793 29.975 116.516 30.1139 95.145C29.247 78.7737 26.6265 62.3058 28.34 45.9215C34.3294 31.294 45.9874 48.0568 42.738 57.3839C43.9027 68.0761 45.0219 84.8835 50.0755 91.7323C49.5299 78.4832 47.3184 65.2144 49.7646 51.9905C51.7026 41.0357 49.887 27.3709 57.9271 18.9376C72.6383 14.8776 67.1814 34.5932 67.7157 43.0959C67.3692 56.0272 67.8036 69.0851 69.8445 81.8776C70.7716 58.3221 69.7346 34.438 74.2093 11.1996C85.3203 -0.564845 92.1044 20.5617 89.959 29.9455C91.85 46.2855 91.4436 62.7065 91.3826 79.1105C99.4761 77.9461 99.2025 60.2844 101.933 52.1776C105.385 41.0078 99.6858 25.7713 109.208 17.4727C123.906 15.4438 120.533 35.6042 121.179 45.0064C121.615 60.4034 120.239 75.8277 116.018 90.6756C113.246 102.492 115.478 115.998 125.364 123.844C137.944 120.755 144.371 106.674 155.252 100.17C165.617 90.8389 181.668 101.41 167.872 111.763C162.322 122.505 155.545 132.477 147.187 141.337C137.075 158.375 117.383 167.246 107.745 184.594C103.22 199.973 102.792 216.301 100.537 232.144C97.7581 254.439 94.8162 276.824 96.4895 299.34C95.1964 304.978 101.672 317.034 91.7813 314.226C63.5026 314.026 35.1919 314.732 6.93573 313.694L6.05425 313.406L5.8595 313.031L5.86312 313.034Z" stroke="black" stroke-width="1.55917"/>
</g>
<defs>
<filter id="filter0_f_234_10" x="147.284" y="118.304" width="9.27101" height="12.1659" filterUnits="userSpaceOnUse" color-interpolation-filters="sRGB">
<feFlood flood-opacity="0" result="BackgroundImageFix"/>
<feBlend mode="normal" in="SourceGraphic" in2="BackgroundImageFix" result="shape"/>
<feGaussianBlur stdDeviation="0.219106" result="effect1_foregroundBlur_234_10"/>
</filter>
<filter id="filter1_f_234_10" x="142.98" y="126.027" width="8.60262" height="11.2227" filterUnits="userSpaceOnUse" color-interpolation-filters="sRGB">
<feFlood flood-opacity="0" result="BackgroundImageFix"/>
<feBlend mode="normal" in="SourceGraphic" in2="BackgroundImageFix" result="shape"/>
<feGaussianBlur stdDeviation="0.219106" result="effect1_foregroundBlur_234_10"/>
</filter>
<filter id="filter2_f_234_10" x="134.505" y="129.625" width="13.8122" height="12.8431" filterUnits="userSpaceOnUse" color-interpolation-filters="sRGB">
<feFlood flood-opacity="0" result="BackgroundImageFix"/>
<feBlend mode="normal" in="SourceGraphic" in2="BackgroundImageFix" result="shape"/>
<feGaussianBlur stdDeviation="0.219106" result="effect1_foregroundBlur_234_10"/>
</filter>
<filter id="filter3_f_234_10" x="125.441" y="137.348" width="16.2361" height="12.6426" filterUnits="userSpaceOnUse" color-interpolation-filters="sRGB">
<feFlood flood-opacity="0" result="BackgroundImageFix"/>
<feBlend mode="normal" in="SourceGraphic" in2="BackgroundImageFix" result="shape"/>
<feGaussianBlur stdDeviation="0.219106" result="effect1_foregroundBlur_234_10"/>
</filter>
<filter id="filter4_f_234_10" x="120.793" y="147.469" width="12.353" height="11.8309" filterUnits="userSpaceOnUse" color-interpolation-filters="sRGB">
<feFlood flood-opacity="0" result="BackgroundImageFix"/>
<feBlend mode="normal" in="SourceGraphic" in2="BackgroundImageFix" result="shape"/>
<feGaussianBlur stdDeviation="0.219106" result="effect1_foregroundBlur_234_10"/>
</filter>
<filter id="filter5_f_234_10" x="114.561" y="153.857" width="8.63918" height="13.2469" filterUnits="userSpaceOnUse" color-interpolation-filters="sRGB">
<feFlood flood-opacity="0" result="BackgroundImageFix"/>
<feBlend mode="normal" in="SourceGraphic" in2="BackgroundImageFix" result="shape"/>
<feGaussianBlur stdDeviation="0.219106" result="effect1_foregroundBlur_234_10"/>
</filter>
<filter id="filter6_f_234_10" x="37.1495" y="86.2284" width="3.3279" height="12.6377" filterUnits="userSpaceOnUse" color-interpolation-filters="sRGB">
<feFlood flood-opacity="0" result="BackgroundImageFix"/>
<feBlend mode="normal" in="SourceGraphic" in2="BackgroundImageFix" result="shape"/>
<feGaussianBlur stdDeviation="0.219106" result="effect1_foregroundBlur_234_10"/>
</filter>
<filter id="filter7_f_234_10" x="32.5567" y="91.4121" width="10.7511" height="3.43877" filterUnits="userSpaceOnUse" color-interpolation-filters="sRGB">
<feFlood flood-opacity="0" result="BackgroundImageFix"/>
<feBlend mode="normal" in="SourceGraphic" in2="BackgroundImageFix" result="shape"/>
<feGaussianBlur stdDeviation="0.219106" result="effect1_foregroundBlur_234_10"/>
</filter>
<filter id="filter8_f_234_10" x="53.3513" y="77.4942" width="12.3843" height="4.39095" filterUnits="userSpaceOnUse" color-interpolation-filters="sRGB">
<feFlood flood-opacity="0" result="BackgroundImageFix"/>
<feBlend mode="normal" in="SourceGraphic" in2="BackgroundImageFix" result="shape"/>
<feGaussianBlur stdDeviation="0.219106" result="effect1_foregroundBlur_234_10"/>
</filter>
<filter id="filter9_f_234_10" x="57.535" y="73.4927" width="2.79372" height="11.5024" filterUnits="userSpaceOnUse" color-interpolation-filters="sRGB">
<feFlood flood-opacity="0" result="BackgroundImageFix"/>
<feBlend mode="normal" in="SourceGraphic" in2="BackgroundImageFix" result="shape"/>
<feGaussianBlur stdDeviation="0.219106" result="effect1_foregroundBlur_234_10"/>
</filter>
<filter id="filter10_f_234_10" x="78.2978" y="70.1906" width="4.20089" height="12.6378" filterUnits="userSpaceOnUse" color-interpolation-filters="sRGB">
<feFlood flood-opacity="0" result="BackgroundImageFix"/>
<feBlend mode="normal" in="SourceGraphic" in2="BackgroundImageFix" result="shape"/>
<feGaussianBlur stdDeviation="0.219106" result="effect1_foregroundBlur_234_10"/>
</filter>
<filter id="filter11_f_234_10" x="75.0495" y="76.2665" width="11.2376" height="3.71672" filterUnits="userSpaceOnUse" color-interpolation-filters="sRGB">
<feFlood flood-opacity="0" result="BackgroundImageFix"/>
<feBlend mode="normal" in="SourceGraphic" in2="BackgroundImageFix" result="shape"/>
<feGaussianBlur stdDeviation="0.219106" result="effect1_foregroundBlur_234_10"/>
</filter>
<filter id="filter12_f_234_10" x="77.137" y="36.7005" width="2.74495" height="6.39626" filterUnits="userSpaceOnUse" color-interpolation-filters="sRGB">
<feFlood flood-opacity="0" result="BackgroundImageFix"/>
<feBlend mode="normal" in="SourceGraphic" in2="BackgroundImageFix" result="shape"/>
<feGaussianBlur stdDeviation="0.219106" result="effect1_foregroundBlur_234_10"/>
</filter>
<filter id="filter13_f_234_10" x="75.5537" y="38.5473" width="5.46236" height="2.81508" filterUnits="userSpaceOnUse" color-interpolation-filters="sRGB">
<feFlood flood-opacity="0" result="BackgroundImageFix"/>
<feBlend mode="normal" in="SourceGraphic" in2="BackgroundImageFix" result="shape"/>
<feGaussianBlur stdDeviation="0.219106" result="effect1_foregroundBlur_234_10"/>
</filter>
<filter id="filter14_f_234_10" x="57.0279" y="44.0386" width="2.77492" height="5.99605" filterUnits="userSpaceOnUse" color-interpolation-filters="sRGB">
<feFlood flood-opacity="0" result="BackgroundImageFix"/>
<feBlend mode="normal" in="SourceGraphic" in2="BackgroundImageFix" result="shape"/>
<feGaussianBlur stdDeviation="0.219106" result="effect1_foregroundBlur_234_10"/>
</filter>
<filter id="filter15_f_234_10" x="55.9415" y="45.3408" width="5.59572" height="2.95925" filterUnits="userSpaceOnUse" color-interpolation-filters="sRGB">
<feFlood flood-opacity="0" result="BackgroundImageFix"/>
<feBlend mode="normal" in="SourceGraphic" in2="BackgroundImageFix" result="shape"/>
<feGaussianBlur stdDeviation="0.219106" result="effect1_foregroundBlur_234_10"/>
</filter>
<filter id="filter16_f_234_10" x="32.6629" y="66.4524" width="2.72487" height="5.329" filterUnits="userSpaceOnUse" color-interpolation-filters="sRGB">
<feFlood flood-opacity="0" result="BackgroundImageFix"/>
<feBlend mode="normal" in="SourceGraphic" in2="BackgroundImageFix" result="shape"/>
<feGaussianBlur stdDeviation="0.219106" result="effect1_foregroundBlur_234_10"/>
</filter>
<filter id="filter17_f_234_10" x="31.393" y="68.1562" width="4.52846" height="2.69118" filterUnits="userSpaceOnUse" color-interpolation-filters="sRGB">
<feFlood flood-opacity="0" result="BackgroundImageFix"/>
<feBlend mode="normal" in="SourceGraphic" in2="BackgroundImageFix" result="shape"/>
<feGaussianBlur stdDeviation="0.219106" result="effect1_foregroundBlur_234_10"/>
</filter>
<filter id="filter18_f_234_10" x="42.9685" y="106.01" width="62.6168" height="60.6426" filterUnits="userSpaceOnUse" color-interpolation-filters="sRGB">
<feFlood flood-opacity="0" result="BackgroundImageFix"/>
<feBlend mode="normal" in="SourceGraphic" in2="BackgroundImageFix" result="shape"/>
<feGaussianBlur stdDeviation="0.219106" result="effect1_foregroundBlur_234_10"/>
</filter>
<filter id="filter19_f_234_10" x="103.325" y="161.139" width="2.6111" height="2.26018" filterUnits="userSpaceOnUse" color-interpolation-filters="sRGB">
<feFlood flood-opacity="0" result="BackgroundImageFix"/>
<feBlend mode="normal" in="SourceGraphic" in2="BackgroundImageFix" result="shape"/>
<feGaussianBlur stdDeviation="0.219106" result="effect1_foregroundBlur_234_10"/>
</filter>
<filter id="filter20_f_234_10" x="53.4964" y="101.729" width="58.4052" height="62.754" filterUnits="userSpaceOnUse" color-interpolation-filters="sRGB">
<feFlood flood-opacity="0" result="BackgroundImageFix"/>
<feBlend mode="normal" in="SourceGraphic" in2="BackgroundImageFix" result="shape"/>
<feGaussianBlur stdDeviation="0.219106" result="effect1_foregroundBlur_234_10"/>
</filter>
<filter id="filter21_f_234_10" x="49.2856" y="109.907" width="6.19429" height="10.3312" filterUnits="userSpaceOnUse" color-interpolation-filters="sRGB">
<feFlood flood-opacity="0" result="BackgroundImageFix"/>
<feBlend mode="normal" in="SourceGraphic" in2="BackgroundImageFix" result="shape"/>
<feGaussianBlur stdDeviation="0.219106" result="effect1_foregroundBlur_234_10"/>
</filter>
<filter id="filter22_f_234_10" x="53.4964" y="116.223" width="8.57741" height="10.3311" filterUnits="userSpaceOnUse" color-interpolation-filters="sRGB">
<feFlood flood-opacity="0" result="BackgroundImageFix"/>
<feBlend mode="normal" in="SourceGraphic" in2="BackgroundImageFix" result="shape"/>
<feGaussianBlur stdDeviation="0.219106" result="effect1_foregroundBlur_234_10"/>
</filter>
<filter id="filter23_f_234_10" x="60.8656" y="122.89" width="8.22579" height="8.57671" filterUnits="userSpaceOnUse" color-interpolation-filters="sRGB">
<feFlood flood-opacity="0" result="BackgroundImageFix"/>
<feBlend mode="normal" in="SourceGraphic" in2="BackgroundImageFix" result="shape"/>
<feGaussianBlur stdDeviation="0.219106" result="effect1_foregroundBlur_234_10"/>
</filter>
<filter id="filter24_f_234_10" x="66.129" y="128.856" width="8.92757" height="7.17302" filterUnits="userSpaceOnUse" color-interpolation-filters="sRGB">
<feFlood flood-opacity="0" result="BackgroundImageFix"/>
<feBlend mode="normal" in="SourceGraphic" in2="BackgroundImageFix" result="shape"/>
<feGaussianBlur stdDeviation="0.219106" result="effect1_foregroundBlur_234_10"/>
</filter>
<filter id="filter25_f_234_10" x="69.9889" y="134.119" width="7.17305" height="6.12035" filterUnits="userSpaceOnUse" color-interpolation-filters="sRGB">
<feFlood flood-opacity="0" result="BackgroundImageFix"/>
<feBlend mode="normal" in="SourceGraphic" in2="BackgroundImageFix" result="shape"/>
<feGaussianBlur stdDeviation="0.219106" result="effect1_foregroundBlur_234_10"/>
</filter>
<filter id="filter26_f_234_10" x="72.6223" y="140.084" width="4.89058" height="6.47124" filterUnits="userSpaceOnUse" color-interpolation-filters="sRGB">
<feFlood flood-opacity="0" result="BackgroundImageFix"/>
<feBlend mode="normal" in="SourceGraphic" in2="BackgroundImageFix" result="shape"/>
<feGaussianBlur stdDeviation="0.219106" result="effect1_foregroundBlur_234_10"/>
</filter>
<filter id="filter27_f_234_10" x="64.7255" y="143.945" width="6.47109" height="8.57654" filterUnits="userSpaceOnUse" color-interpolation-filters="sRGB">
<feFlood flood-opacity="0" result="BackgroundImageFix"/>
<feBlend mode="normal" in="SourceGraphic" in2="BackgroundImageFix" result="shape"/>
<feGaussianBlur stdDeviation="0.219106" result="effect1_foregroundBlur_234_10"/>
</filter>
<filter id="filter28_f_234_10" x="58.0582" y="143.944" width="9.62941" height="13.1385" filterUnits="userSpaceOnUse" color-interpolation-filters="sRGB">
<feFlood flood-opacity="0" result="BackgroundImageFix"/>
<feBlend mode="normal" in="SourceGraphic" in2="BackgroundImageFix" result="shape"/>
<feGaussianBlur stdDeviation="0.219106" result="effect1_foregroundBlur_234_10"/>
</filter>
<filter id="filter29_f_234_10" x="56.9914" y="150.948" width="7.17305" height="9.98029" filterUnits="userSpaceOnUse" color-interpolation-filters="sRGB">
<feFlood flood-opacity="0" result="BackgroundImageFix"/>
<feBlend mode="normal" in="SourceGraphic" in2="BackgroundImageFix" result="shape"/>
<feGaussianBlur stdDeviation="0.219106" result="effect1_foregroundBlur_234_10"/>
</filter>
<filter id="filter30_f_234_10" x="87.8851" y="155.508" width="10.3312" height="5.08387" filterUnits="userSpaceOnUse" color-interpolation-filters="sRGB">
<feFlood flood-opacity="0" result="BackgroundImageFix"/>
<feBlend mode="normal" in="SourceGraphic" in2="BackgroundImageFix" result="shape"/>
<feGaussianBlur stdDeviation="0.219106" result="effect1_foregroundBlur_234_10"/>
</filter>
<filter id="filter31_f_234_10" x="84.7271" y="148.155" width="7.17293" height="5.08257" filterUnits="userSpaceOnUse" color-interpolation-filters="sRGB">
<feFlood flood-opacity="0" result="BackgroundImageFix"/>
<feBlend mode="normal" in="SourceGraphic" in2="BackgroundImageFix" result="shape"/>
<feGaussianBlur stdDeviation="0.219106" result="effect1_foregroundBlur_234_10"/>
</filter>
<filter id="filter32_f_234_10" x="82.2706" y="141.839" width="6.47127" height="5.26473" filterUnits="userSpaceOnUse" color-interpolation-filters="sRGB">
<feFlood flood-opacity="0" result="BackgroundImageFix"/>
<feBlend mode="normal" in="SourceGraphic" in2="BackgroundImageFix" result="shape"/>
<feGaussianBlur stdDeviation="0.219106" result="effect1_foregroundBlur_234_10"/>
</filter>
<filter id="filter33_f_234_10" x="85.4289" y="133.417" width="4.71651" height="6.82195" filterUnits="userSpaceOnUse" color-interpolation-filters="sRGB">
<feFlood flood-opacity="0" result="BackgroundImageFix"/>
<feBlend mode="normal" in="SourceGraphic" in2="BackgroundImageFix" result="shape"/>
<feGaussianBlur stdDeviation="0.219106" result="effect1_foregroundBlur_234_10"/>
</filter>
<filter id="filter34_f_234_10" x="89.2888" y="127.101" width="8.57656" height="9.98018" filterUnits="userSpaceOnUse" color-interpolation-filters="sRGB">
<feFlood flood-opacity="0" result="BackgroundImageFix"/>
<feBlend mode="normal" in="SourceGraphic" in2="BackgroundImageFix" result="shape"/>
<feGaussianBlur stdDeviation="0.219106" result="effect1_foregroundBlur_234_10"/>
</filter>
<filter id="filter35_f_234_10" x="93.8505" y="117.978" width="9.2784" height="12.0856" filterUnits="userSpaceOnUse" color-interpolation-filters="sRGB">
<feFlood flood-opacity="0" result="BackgroundImageFix"/>
<feBlend mode="normal" in="SourceGraphic" in2="BackgroundImageFix" result="shape"/>
<feGaussianBlur stdDeviation="0.219106" result="effect1_foregroundBlur_234_10"/>
</filter>
<filter id="filter36_f_234_10" x="100.167" y="109.205" width="8.22573" height="11.0329" filterUnits="userSpaceOnUse" color-interpolation-filters="sRGB">
<feFlood flood-opacity="0" result="BackgroundImageFix"/>
<feBlend mode="normal" in="SourceGraphic" in2="BackgroundImageFix" result="shape"/>
<feGaussianBlur stdDeviation="0.219106" result="effect1_foregroundBlur_234_10"/>
</filter>
<filter id="filter37_f_234_10" x="55.2511" y="89.9052" width="38.1966" height="22.5758" filterUnits="userSpaceOnUse" color-interpolation-filters="sRGB">
<feFlood flood-opacity="0" result="BackgroundImageFix"/>
<feBlend mode="normal" in="SourceGraphic" in2="BackgroundImageFix" result="shape"/>
<feGaussianBlur stdDeviation="0.219106" result="effect1_foregroundBlur_234_10"/>
</filter>
<filter id="filter38_f_234_10" x="55.251" y="100.418" width="5.76937" height="8.2257" filterUnits="userSpaceOnUse" color-interpolation-filters="sRGB">
<feFlood flood-opacity="0" result="BackgroundImageFix"/>
<feBlend mode="normal" in="SourceGraphic" in2="BackgroundImageFix" result="shape"/>
<feGaussianBlur stdDeviation="0.219106" result="effect1_foregroundBlur_234_10"/>
</filter>
<filter id="filter39_f_234_10" x="50.6893" y="96.9233" width="7.17305" height="7.17293" filterUnits="userSpaceOnUse" color-interpolation-filters="sRGB">
<feFlood flood-opacity="0" result="BackgroundImageFix"/>
<feBlend mode="normal" in="SourceGraphic" in2="BackgroundImageFix" result="shape"/>
<feGaussianBlur stdDeviation="0.219106" result="effect1_foregroundBlur_234_10"/>
</filter>
<filter id="filter40_f_234_10" x="62.6201" y="106.734" width="4.50972" height="6.12035" filterUnits="userSpaceOnUse" color-interpolation-filters="sRGB">
<feFlood flood-opacity="0" result="BackgroundImageFix"/>
<feBlend mode="normal" in="SourceGraphic" in2="BackgroundImageFix" result="shape"/>
<feGaussianBlur stdDeviation="0.219106" result="effect1_foregroundBlur_234_10"/>
</filter>
<filter id="filter41_f_234_10" x="72.0944" y="110.258" width="3.34261" height="12.0857" filterUnits="userSpaceOnUse" color-interpolation-filters="sRGB">
<feFlood flood-opacity="0" result="BackgroundImageFix"/>
<feBlend mode="normal" in="SourceGraphic" in2="BackgroundImageFix" result="shape"/>
<feGaussianBlur stdDeviation="0.219106" result="effect1_foregroundBlur_234_10"/>
</filter>
<filter id="filter42_f_234_10" x="80.0976" y="108.854" width="3.084" height="10.3312" filterUnits="userSpaceOnUse" color-interpolation-filters="sRGB">
<feFlood flood-opacity="0" result="BackgroundImageFix"/>
<feBlend mode="normal" in="SourceGraphic" in2="BackgroundImageFix" result="shape"/>
<feGaussianBlur stdDeviation="0.219106" result="effect1_foregroundBlur_234_10"/>
</filter>
<filter id="filter43_f_234_10" x="86.8468" y="104.307" width="5.76943" height="8.9276" filterUnits="userSpaceOnUse" color-interpolation-filters="sRGB">
<feFlood flood-opacity="0" result="BackgroundImageFix"/>
<feBlend mode="normal" in="SourceGraphic" in2="BackgroundImageFix" result="shape"/>
<feGaussianBlur stdDeviation="0.219106" result="effect1_foregroundBlur_234_10"/>
</filter>
<filter id="filter44_f_234_10" x="90.3416" y="99.0287" width="6.32637" height="8.22582" filterUnits="userSpaceOnUse" color-interpolation-filters="sRGB">
<feFlood flood-opacity="0" result="BackgroundImageFix"/>
<feBlend mode="normal" in="SourceGraphic" in2="BackgroundImageFix" result="shape"/>
<feGaussianBlur stdDeviation="0.219106" result="effect1_foregroundBlur_234_10"/>
</filter>
<filter id="filter45_f_234_10" x="90.6925" y="89.5543" width="6.82216" height="9.9803" filterUnits="userSpaceOnUse" color-interpolation-filters="sRGB">
<feFlood flood-opacity="0" result="BackgroundImageFix"/>
<feBlend mode="normal" in="SourceGraphic" in2="BackgroundImageFix" result="shape"/>
<feGaussianBlur stdDeviation="0.219106" result="effect1_foregroundBlur_234_10"/>
</filter>
<filter id="filter46_f_234_10" x="70.7651" y="162.272" width="10.7063" height="11.2686" filterUnits="userSpaceOnUse" color-interpolation-filters="sRGB">
<feFlood flood-opacity="0" result="BackgroundImageFix"/>
<feBlend mode="normal" in="SourceGraphic" in2="BackgroundImageFix" result="shape"/>
<feGaussianBlur stdDeviation="0.219106" result="effect1_foregroundBlur_234_10"/>
</filter>
<filter id="filter47_f_234_10" x="43.0627" y="184.796" width="52.7911" height="23.1682" filterUnits="userSpaceOnUse" color-interpolation-filters="sRGB">
<feFlood flood-opacity="0" result="BackgroundImageFix"/>
<feBlend mode="normal" in="SourceGraphic" in2="BackgroundImageFix" result="shape"/>
<feGaussianBlur stdDeviation="0.219106" result="effect1_foregroundBlur_234_10"/>
</filter>
<filter id="filter48_f_234_10" x="52.7946" y="184.986" width="2.96218" height="10.688" filterUnits="userSpaceOnUse" color-interpolation-filters="sRGB">
<feFlood flood-opacity="0" result="BackgroundImageFix"/>
<feBlend mode="normal" in="SourceGraphic" in2="BackgroundImageFix" result="shape"/>
<feGaussianBlur stdDeviation="0.219106" result="effect1_foregroundBlur_234_10"/>
</filter>
<filter id="filter49_f_234_10" x="60.5147" y="185.702" width="4.43911" height="13.4893" filterUnits="userSpaceOnUse" color-interpolation-filters="sRGB">
<feFlood flood-opacity="0" result="BackgroundImageFix"/>
<feBlend mode="normal" in="SourceGraphic" in2="BackgroundImageFix" result="shape"/>
<feGaussianBlur stdDeviation="0.219106" result="effect1_foregroundBlur_234_10"/>
</filter>
<filter id="filter50_f_234_10" x="71.3927" y="190.264" width="5.15773" height="11.3838" filterUnits="userSpaceOnUse" color-interpolation-filters="sRGB">
<feFlood flood-opacity="0" result="BackgroundImageFix"/>
<feBlend mode="normal" in="SourceGraphic" in2="BackgroundImageFix" result="shape"/>
<feGaussianBlur stdDeviation="0.219106" result="effect1_foregroundBlur_234_10"/>
</filter>
<filter id="filter51_f_234_10" x="81.2179" y="194.475" width="5.06783" height="11.0332" filterUnits="userSpaceOnUse" color-interpolation-filters="sRGB">
<feFlood flood-opacity="0" result="BackgroundImageFix"/>
<feBlend mode="normal" in="SourceGraphic" in2="BackgroundImageFix" result="shape"/>
<feGaussianBlur stdDeviation="0.219106" result="effect1_foregroundBlur_234_10"/>
</filter>
<clipPath id="clip0_234_10">
<rect width="178.764" height="310" fill="white" transform="translate(0.236389)"/>
</clipPath>
</defs>
</svg>
