<svg width="110" height="108" viewBox="0 0 110 108" fill="none" xmlns="http://www.w3.org/2000/svg">
<g clip-path="url(#clip0_235_72)">
<path fill-rule="evenodd" clip-rule="evenodd" d="M38.6762 55.07C45.8099 48.1713 52.3924 44.7188 58.4274 44.7188C65.2587 44.7188 72.2074 48.1713 79.2774 55.07C86.3424 61.97 89.8724 68.7175 89.8724 75.3188C89.8724 86.8525 79.5262 92.6188 58.8237 92.6188C38.1249 92.6188 27.7737 86.8525 27.7737 75.3188C27.7737 68.8838 31.4062 62.1363 38.6762 55.07V55.07Z" fill="url(#paint0_linear_235_72)"/>
<path fill-rule="evenodd" clip-rule="evenodd" d="M38.6762 55.9688C45.8099 49.235 52.3924 45.8713 58.4274 45.8713C65.2587 45.8713 72.2074 49.235 79.2774 55.9688C86.3424 62.7025 89.8724 69.3038 89.8724 75.7688C89.8724 87.0038 79.5262 92.6188 58.8237 92.6188C38.1249 92.6188 27.7737 87.0038 27.7737 75.7688C27.7737 69.435 31.4062 62.8338 38.6762 55.9688V55.9688Z" fill="url(#paint1_linear_235_72)"/>
<path fill-rule="evenodd" clip-rule="evenodd" d="M43.4274 57.8188C49.7611 51.3838 55.6099 48.1713 60.9761 48.1713C67.0749 48.1713 73.2912 51.3838 79.6237 57.8188C85.9274 64.2838 89.0774 70.6025 89.0774 76.77C89.0774 87.57 79.8436 92.9713 61.3774 92.9713C42.9099 92.9713 33.6761 87.57 33.6761 76.77C33.6761 70.735 36.9236 64.4213 43.4274 57.8188V57.8188Z" fill="#400A11"/>
<path fill-rule="evenodd" clip-rule="evenodd" d="M40.6737 57.37C47.11 50.8713 53.0562 47.6188 58.525 47.6188C64.6925 47.6188 70.9912 50.8713 77.4262 57.37C83.8237 63.835 87.0262 70.1675 87.0262 76.3688C87.0262 87.2038 77.6412 92.6188 58.8775 92.6188C40.1412 92.6188 30.7762 87.2038 30.7762 76.3688C30.7762 70.3 34.0775 63.9663 40.6737 57.37V57.37Z" fill="url(#paint2_linear_235_72)"/>
<path fill-rule="evenodd" clip-rule="evenodd" d="M69.5262 52.2188C70.4249 52.7513 71.0937 53.3513 71.5237 54.02C71.9924 54.7875 71.7237 55.1675 70.7274 55.1675C69.6587 55.1675 68.4424 54.7038 67.0749 53.7713C65.7424 52.8688 65.1074 52.17 65.1762 51.6675C65.2387 51.1688 65.7074 50.9688 66.5774 51.0713C67.5099 51.1688 68.4912 51.55 69.5262 52.2188V52.2188Z" fill="url(#paint3_linear_235_72)"/>
<path fill-rule="evenodd" clip-rule="evenodd" d="M48.725 52.2188C49.795 51.55 50.7762 51.1688 51.675 51.0713C52.5737 50.9688 53.0562 51.1688 53.125 51.6675C53.1937 52.17 52.5587 52.8688 51.225 53.7713C49.8587 54.7038 48.6425 55.1675 47.5737 55.1675C46.5775 55.1675 46.3087 54.7875 46.7775 54.02C47.1775 53.3513 47.8275 52.7513 48.725 52.2188V52.2188Z" fill="url(#paint4_linear_235_72)"/>
<path fill-rule="evenodd" clip-rule="evenodd" d="M39.7262 59.3675C40.1274 59.0013 40.3412 58.9525 40.3762 59.2213C40.4099 59.485 40.2587 59.7038 39.9262 59.87C39.6237 60.0025 39.4774 59.9875 39.4774 59.8213C39.4774 59.685 39.5599 59.5375 39.7262 59.3675V59.3675Z" fill="#CC683F"/>
<path fill-rule="evenodd" clip-rule="evenodd" d="M44.0774 54.9188C44.7412 54.5525 44.8924 54.6012 44.5262 55.07C44.1262 55.5687 43.7749 55.8713 43.4762 55.9688C43.2424 56.0375 43.2074 55.92 43.3737 55.6175C43.5449 55.3187 43.7749 55.085 44.0774 54.9188V54.9188Z" fill="#CC683F"/>
<path fill-rule="evenodd" clip-rule="evenodd" d="M42.7738 57.1213C43.0763 56.8863 43.4275 56.7213 43.8237 56.6188C44.1937 56.52 44.4575 56.535 44.6238 56.6675C44.8925 56.8675 44.5413 57.2675 43.5738 57.8688C42.4413 58.6 41.875 58.7863 41.875 58.42C41.875 58.1175 42.1775 57.6875 42.7738 57.1213Z" fill="#CC683F"/>
<path fill-rule="evenodd" clip-rule="evenodd" d="M45.3274 54.9675C45.5274 54.9038 45.5912 54.9675 45.5274 55.1675C45.4587 55.4025 45.3274 55.52 45.1274 55.52C44.9562 55.52 44.9074 55.4363 44.9749 55.27C45.0437 55.1338 45.1562 55.0363 45.3274 54.9675V54.9675Z" fill="#CC683F"/>
<path fill-rule="evenodd" clip-rule="evenodd" d="M48.7249 52.2188C47.7586 52.785 47.1099 53.3863 46.7774 54.02C46.6061 54.3525 46.5424 54.6213 46.5774 54.8213C46.4061 53.9863 46.7574 53.22 47.6274 52.5213C48.7249 51.6188 49.8774 51.0513 51.0736 50.8175L48.7249 52.2188V52.2188Z" fill="#CC683F"/>
<path fill-rule="evenodd" clip-rule="evenodd" d="M64.7749 50.6175L64.4774 51.0713C64.3412 51.4663 64.3949 51.8863 64.6237 52.3213C65.0249 52.985 65.3274 53.42 65.5274 53.62C64.3949 52.8875 63.8424 52.2038 63.8774 51.5688C63.9062 51.1688 64.0774 50.8863 64.3749 50.72C64.5062 50.6513 64.6437 50.6175 64.7749 50.6175Z" fill="#CC683F"/>
<path fill-rule="evenodd" clip-rule="evenodd" d="M40.9275 60.5688C41.66 59.9388 42.1437 59.7675 42.3775 60.07C42.6075 60.3688 42.5437 60.685 42.1775 61.0175C41.5425 61.5838 40.86 61.95 40.1275 62.1213C39.795 62.2188 39.7612 62.0525 40.025 61.6188C40.2587 61.2175 40.5562 60.8713 40.9275 60.5688Z" fill="#CC683F"/>
<path fill-rule="evenodd" clip-rule="evenodd" d="M40.5761 62.9713C40.9424 62.7363 41.0599 62.8188 40.9274 63.22C40.7561 63.6538 40.5274 63.9175 40.2249 64.02C39.9261 64.1188 39.8236 64.02 39.9261 63.7175C40.0586 63.42 40.2736 63.1713 40.5761 62.9713Z" fill="#CC683F"/>
<path fill-rule="evenodd" clip-rule="evenodd" d="M37.725 61.52C38.125 61.2525 38.2762 61.2862 38.1737 61.6187C38.0425 61.95 37.8412 62.185 37.5737 62.3213C37.3437 62.4538 37.2412 62.385 37.275 62.1213C37.3437 61.8863 37.49 61.6863 37.725 61.52Z" fill="#CC683F"/>
<path fill-rule="evenodd" clip-rule="evenodd" d="M43.1249 58.6688C43.5937 58.5025 43.7062 58.5863 43.4762 58.9175C43.2424 59.2838 43.0274 59.47 42.8274 59.47C42.6562 59.47 42.6074 59.3525 42.6762 59.1188C42.7437 58.8838 42.8899 58.7375 43.1249 58.6688Z" fill="#CC683F"/>
<path fill-rule="evenodd" clip-rule="evenodd" d="M40.7762 58.42C40.9424 58.2875 41.0249 58.3175 41.0249 58.5175C41.0249 58.7175 40.9624 58.82 40.8249 58.82C40.7274 58.82 40.6587 58.7713 40.6249 58.6688C40.5912 58.5713 40.6399 58.4888 40.7762 58.42V58.42Z" fill="#CC683F"/>
<path fill-rule="evenodd" clip-rule="evenodd" d="M33.1737 70.0213C33.4087 69.9538 33.525 70.0513 33.525 70.3188C33.525 70.5875 33.3937 70.8713 33.125 71.1688C32.89 71.5013 32.6562 71.6375 32.4262 71.5688C32.2262 71.535 32.1925 71.3688 32.3237 71.0713C32.5587 70.4363 32.8412 70.085 33.1737 70.0213V70.0213Z" fill="#C4643D"/>
<path fill-rule="evenodd" clip-rule="evenodd" d="M32.8274 72.0675C33.0274 72.0375 33.0562 72.2525 32.9249 72.7163C32.7924 73.185 32.6075 73.435 32.3775 73.4688C32.1437 73.5025 32.0949 73.2838 32.2262 72.8188C32.3924 72.35 32.5924 72.1013 32.8274 72.0675V72.0675Z" fill="#C4643D"/>
<path fill-rule="evenodd" clip-rule="evenodd" d="M34.7749 70.9688C35.1412 70.7688 35.2587 70.9 35.1274 71.3688C34.9899 71.8375 34.7949 72.0875 34.5262 72.1213C34.2924 72.185 34.2087 72.0375 34.2774 71.6675C34.3412 71.335 34.5062 71.1 34.7749 70.9688V70.9688Z" fill="#C4643D"/>
<path fill-rule="evenodd" clip-rule="evenodd" d="M56.5774 48.1175C57.1774 48.1175 57.2262 48.2688 56.7237 48.5713C56.2249 48.8688 55.7912 49.02 55.4249 49.02C55.0924 49.02 55.0924 48.8688 55.4249 48.5713C55.7562 48.2688 56.1424 48.1175 56.5774 48.1175V48.1175Z" fill="#CC683F"/>
<path fill-rule="evenodd" clip-rule="evenodd" d="M56.9237 49.5188C57.0949 49.685 57.0949 49.8363 56.9237 49.9675C56.6262 50.2025 56.0449 50.3188 55.1762 50.3188C54.6774 50.285 54.5949 50.1188 54.9262 49.8213C55.2249 49.5188 55.5424 49.3525 55.8737 49.3188C56.3774 49.2838 56.7237 49.3525 56.9237 49.5188V49.5188Z" fill="#CC683F"/>
<path fill-rule="evenodd" clip-rule="evenodd" d="M52.9738 49.67C52.5438 50.0025 52.1588 50.1675 51.8263 50.1675C51.5575 50.1675 51.5913 50.0363 51.9238 49.7675C52.2263 49.5038 52.5438 49.3525 52.8763 49.3188C53.345 49.25 53.3738 49.3675 52.9738 49.67V49.67Z" fill="#CC683F"/>
<path fill-rule="evenodd" clip-rule="evenodd" d="M58.4275 48.5713C58.76 48.605 58.6762 48.7038 58.1737 48.8688C58.0075 48.8688 57.9587 48.8013 58.0275 48.6688C58.0912 48.5713 58.2275 48.5375 58.4275 48.5713Z" fill="#CC683F"/>
<path fill-rule="evenodd" clip-rule="evenodd" d="M55.825 52.3213C56.46 52.2188 56.7925 52.3013 56.8262 52.57C56.86 52.8 56.7237 52.985 56.4262 53.1175C55.6937 53.5175 55.0737 53.6688 54.575 53.5713C54.2437 53.5375 54.2775 53.3375 54.6775 52.9713C55.0737 52.605 55.4587 52.385 55.825 52.3213Z" fill="#C4643D"/>
<path fill-rule="evenodd" clip-rule="evenodd" d="M52.075 55.72C52.7437 55.52 52.925 55.6025 52.6275 55.9688C52.3237 56.335 51.9775 56.535 51.5775 56.5688C51.24 56.6038 51.1575 56.4863 51.3237 56.2175C51.4937 55.9538 51.7437 55.7875 52.075 55.72V55.72Z" fill="#C4643D"/>
<path fill-rule="evenodd" clip-rule="evenodd" d="M46.1762 56.12C46.6062 56.0863 46.7774 56.1838 46.6749 56.4175C46.5424 56.6863 46.2937 56.8525 45.9274 56.9213C45.6249 56.985 45.5274 56.8863 45.6249 56.6188C45.7562 56.355 45.9424 56.1888 46.1762 56.12V56.12Z" fill="#CC683F"/>
<path fill-rule="evenodd" clip-rule="evenodd" d="M47.2749 59.3188C47.8074 59.0838 47.9587 59.1675 47.7249 59.5675C47.4899 59.9675 47.2074 60.2025 46.8749 60.27C46.6062 60.3338 46.5237 60.2163 46.6262 59.9188C46.7237 59.65 46.9437 59.45 47.2749 59.3188Z" fill="#C4643D"/>
<path fill-rule="evenodd" clip-rule="evenodd" d="M48.7749 59.0688C49.0424 59.0013 49.0911 59.1038 48.9261 59.3675C48.7599 59.6013 48.5736 59.7525 48.3736 59.8213C48.1736 59.855 48.1249 59.7525 48.2274 59.5188C48.3249 59.3188 48.5111 59.1675 48.7749 59.0688V59.0688Z" fill="#C4643D"/>
<path fill-rule="evenodd" clip-rule="evenodd" d="M48.3737 55.4713L48.9749 55.27C49.5412 55.07 50.2099 54.7875 50.9762 54.4213C52.2074 53.82 53.0912 52.9175 53.6274 51.7213L53.5737 52.57C53.3737 53.235 52.8762 53.8013 52.0749 54.27C50.7762 55.0025 49.5412 55.4025 48.3737 55.4713V55.4713Z" fill="#752E22"/>
<path fill-rule="evenodd" clip-rule="evenodd" d="M72.3237 54.9188C72.5924 55.5875 72.3437 55.9888 71.5774 56.12C71.0737 56.2175 70.6249 56.1538 70.2249 55.92L69.7262 55.5688L71.0737 55.6175C71.7437 55.6513 72.1587 55.4175 72.3237 54.9188V54.9188Z" fill="#7F3525"/>
<path fill-rule="evenodd" clip-rule="evenodd" d="M62.075 49.4213C61.9437 49.1863 61.9925 49.02 62.2262 48.9175C62.4262 48.82 62.725 48.855 63.125 49.02C63.4912 49.1525 63.6762 49.3375 63.6762 49.5675C63.6762 49.7675 63.525 49.9038 63.2275 49.9675C62.725 50.07 62.3437 49.885 62.075 49.4213V49.4213Z" fill="#7F3525"/>
<path fill-rule="evenodd" clip-rule="evenodd" d="M62.1236 50.4713C62.4561 50.6713 62.5249 50.8175 62.3236 50.92C62.1586 51.0513 61.9086 51.0713 61.5774 50.9688C61.2399 50.9 61.1911 50.7538 61.4261 50.52C61.6261 50.3188 61.8599 50.3 62.1236 50.4713V50.4713Z" fill="#7F3525"/>
<path fill-rule="evenodd" clip-rule="evenodd" d="M63.8775 53.5713C64.7075 53.9375 65.3275 54.3675 65.7275 54.87C66.1225 55.3688 66.0737 55.6513 65.5762 55.72C65.1412 55.7838 64.6237 55.6513 64.0237 55.3188C63.4625 55.0513 63.0275 54.7188 62.725 54.3188C62.4562 54.02 62.49 53.7713 62.8275 53.5713C63.125 53.4 63.4762 53.4 63.8775 53.5713V53.5713Z" fill="#7F3525"/>
<path fill-rule="evenodd" clip-rule="evenodd" d="M69.8237 56.4663C70.2924 56.735 70.5274 57.0338 70.5274 57.37C70.5274 57.7025 70.3762 57.9363 70.0737 58.0688C69.7074 58.235 69.2574 57.8688 68.7249 56.97C68.5599 56.6675 68.6087 56.4663 68.8774 56.3688C69.1399 56.2713 69.4574 56.3013 69.8237 56.4663Z" fill="#7F3525"/>
<path fill-rule="evenodd" clip-rule="evenodd" d="M74.3262 56.32C75.0587 56.6863 75.5762 57.1213 75.8737 57.6188C76.2062 58.1175 76.1762 58.435 75.7762 58.5713C75.4437 58.7038 75.0437 58.5513 74.575 58.1175C74.4775 58.02 74.1062 57.605 73.4762 56.8675C73.145 56.535 73.0912 56.3013 73.325 56.1688C73.525 56.0375 73.8575 56.0863 74.3262 56.32V56.32Z" fill="#7F3525"/>
<path fill-rule="evenodd" clip-rule="evenodd" d="M78.4761 59.27C79.1399 59.87 79.2087 60.27 78.6762 60.4713C78.5449 60.5338 78.3599 60.4363 78.1249 60.1675C77.8899 59.9388 77.7099 59.685 77.5736 59.4213C77.4074 59.1188 77.4412 58.9525 77.6762 58.9175C77.9099 58.855 78.1736 58.9663 78.4761 59.27V59.27Z" fill="#63271C"/>
<path fill-rule="evenodd" clip-rule="evenodd" d="M78.0762 60.7688C78.4762 61.0375 78.8237 61.335 79.1262 61.6675C79.4925 62.0675 79.6437 62.37 79.575 62.57C79.5412 62.7363 79.3412 62.8 78.975 62.77C78.4425 62.7025 78.0562 62.7025 77.8275 62.77C77.4562 62.8338 77.06 62.5363 76.6262 61.8675C76.225 61.2038 76.06 60.6513 76.1225 60.2163C76.225 59.85 76.4262 59.7525 76.7237 59.9188C76.86 59.9538 77.31 60.2363 78.0762 60.7688V60.7688Z" fill="#63271C"/>
<path fill-rule="evenodd" clip-rule="evenodd" d="M84.6237 69.8213C85.025 70.085 85.3275 70.52 85.5275 71.12C85.6587 71.5838 85.6937 72.0038 85.625 72.37C85.5912 72.6675 85.425 72.7363 85.1275 72.57C84.8237 72.37 84.5412 72.0675 84.2775 71.6675C84.0425 71.335 83.9937 70.9 84.1262 70.3688C84.2575 69.87 84.4237 69.685 84.6237 69.8213Z" fill="#45150C"/>
<path fill-rule="evenodd" clip-rule="evenodd" d="M84.3261 72.5213C84.5261 72.7163 84.6099 72.9175 84.5749 73.1175C84.5411 73.2537 84.4436 73.3512 84.2774 73.42C84.1399 73.4537 83.9749 73.3025 83.7749 72.9712C83.5736 72.6337 83.4624 72.3362 83.4274 72.0675C83.3936 71.8675 83.4761 71.8188 83.6761 71.9213C83.8774 72.0188 84.0911 72.2188 84.3261 72.5213V72.5213Z" fill="#45150C"/>
<path fill-rule="evenodd" clip-rule="evenodd" d="M35.1274 66.4175C35.7274 65.3188 36.3912 64.5038 37.1237 63.9663C37.8274 63.435 38.3249 63.3513 38.6274 63.7175C38.9599 64.1525 38.7749 65.085 38.0762 66.52C37.3774 68.02 36.5574 69.035 35.6249 69.5675C34.7612 70.105 34.3262 69.9038 34.3262 68.9663C34.3599 68.1713 34.6237 67.3213 35.1274 66.4175V66.4175Z" fill="url(#paint5_linear_235_72)"/>
<path fill-rule="evenodd" clip-rule="evenodd" d="M82.525 66.4175C83.0275 67.3213 83.2912 68.1713 83.325 68.9663C83.325 69.9038 82.89 70.105 82.0262 69.5675C81.0937 69.035 80.2737 68.02 79.575 66.52C78.8775 65.085 78.6912 64.1525 79.0237 63.7175C79.3262 63.3513 79.8437 63.435 80.5762 63.9663C81.275 64.5038 81.9237 65.3188 82.525 66.4175Z" fill="url(#paint6_linear_235_72)"/>
<path fill-rule="evenodd" clip-rule="evenodd" d="M47.1775 93.1713C39.7412 91.8375 35.61 89.1863 34.775 85.2163C33.6087 79.685 36.7087 73.5713 44.0775 66.8675C46.9437 64.235 49.9562 62.0188 53.125 60.2163C56.1912 58.4538 58.5737 57.5363 60.2737 57.4675H60.5275C62.2262 57.5363 64.61 58.4538 67.6762 60.2163C70.845 62.0188 73.8575 64.235 76.7237 66.8675C84.0912 73.5713 87.1925 79.685 86.025 85.2163C85.19 89.1863 81.06 91.8375 73.6225 93.1713C69.6925 93.8688 65.2925 94.1375 60.425 93.9663C55.5275 94.1375 51.1087 93.8688 47.1775 93.1713V93.1713Z" fill="#A85534"/>
<path fill-rule="evenodd" clip-rule="evenodd" d="M45.1762 92.17C37.7387 90.8375 33.6087 88.185 32.7737 84.2213C31.6062 78.6838 34.7124 72.57 42.0749 65.8713C44.9412 63.235 47.9587 61.0175 51.1274 59.2213C54.1937 57.4538 56.5774 56.535 58.2762 56.4663H58.5249C60.2249 56.535 62.6074 57.4538 65.6737 59.2213C68.8424 61.0175 71.8599 63.235 74.7262 65.8713C82.0949 72.57 85.1899 78.6838 84.0237 84.2213C83.1937 88.185 79.0574 90.8375 71.6262 92.17C67.6899 92.8688 63.2912 93.1363 58.4274 92.9713C53.5249 93.1363 49.1062 92.8688 45.1762 92.17Z" fill="#7D3722"/>
<path fill-rule="evenodd" clip-rule="evenodd" d="M45.825 92.57C38.3937 91.2713 34.2575 88.635 33.4275 84.67C32.2612 79.1375 35.3562 73.02 42.725 66.32C45.5912 63.6888 48.6087 61.4663 51.7775 59.67C54.8437 57.9025 57.2262 56.985 58.9262 56.9213V56.8675H59.1262V56.9213C60.825 56.985 63.2075 57.9025 66.275 59.67C69.4437 61.4663 72.475 63.6888 75.3762 66.32C82.71 73.02 85.81 79.1375 84.6775 84.67C83.8425 88.635 79.7075 91.2713 72.275 92.57C68.31 93.3025 63.8912 93.5863 59.0237 93.42C54.1937 93.5863 49.795 93.3025 45.825 92.57V92.57Z" fill="url(#paint7_linear_235_72)"/>
<path fill-rule="evenodd" clip-rule="evenodd" d="M47.2749 92.8688C47.1099 92.6338 47.0262 91.97 47.0262 90.8713C46.9924 88.7375 47.3587 85.6175 48.1249 81.52C48.7937 78.1175 50.6587 75.1875 53.7249 72.7163C55.2587 71.4525 56.8749 70.4713 58.5737 69.7675H58.6224C60.3274 70.4713 61.9437 71.4525 63.4762 72.7163C66.5774 75.1875 68.4424 78.1175 69.0774 81.52C69.8724 85.6175 70.2587 88.7375 70.2249 90.8713C70.2249 91.97 70.1412 92.6338 69.9749 92.8688C69.5749 93.1713 68.8087 93.435 67.6762 93.6688C65.3762 94.2013 62.3587 94.4013 58.6224 94.27C54.8924 94.4013 51.8749 94.2013 49.5749 93.6688L47.2749 92.8688Z" fill="url(#paint8_linear_235_72)"/>
<path fill-rule="evenodd" clip-rule="evenodd" d="M60.5762 75.4175C60.8737 75.685 61.3912 76.2038 62.1237 76.97C62.9937 77.57 64.2237 79.0688 65.8249 81.4663C67.4562 83.9038 68.3937 85.7 68.6224 86.8675C68.9937 88.6 69.0237 89.685 68.7249 90.1188C68.3599 90.6513 67.4749 89.47 66.0737 86.5688C64.6099 83.5025 62.9587 81.2375 61.1224 79.7675L58.8237 78.4688L56.6749 80.07C55.1074 81.535 53.9262 83.2538 53.1249 85.2163C52.5249 86.7838 52.2262 88.4688 52.2262 90.27C52.2262 91.8675 52.4412 93.1713 52.8762 94.1675C51.6062 94.0688 50.5762 93.9175 49.7749 93.7175C49.7124 92.8188 49.7124 91.4175 49.7749 89.5188C49.8437 87.6538 49.9262 86.4663 50.0249 85.9688C50.1274 85.3 50.6249 83.8013 51.5237 81.4663C52.4899 79.0013 53.2562 77.385 53.8237 76.6188C54.4237 75.8863 55.0099 75.4175 55.5762 75.2163C56.0112 75.085 56.9237 74.9675 58.3249 74.87C59.3599 74.8363 60.1074 75.0213 60.5762 75.4175V75.4175Z" fill="#BD994D"/>
<path fill-rule="evenodd" clip-rule="evenodd" d="M48.0274 93.22L47.2749 92.8688C47.1099 92.6338 47.0262 91.97 47.0262 90.8713C46.9924 88.7375 47.3587 85.6175 48.1249 81.52C48.7937 78.1175 50.6587 75.1875 53.7249 72.7163C55.2587 71.4525 56.8749 70.4713 58.5737 69.7675H58.6224C60.3274 70.4713 61.9437 71.4525 63.4762 72.7163C66.5774 75.1875 68.4424 78.1175 69.0774 81.52C69.8724 85.6175 70.2587 88.7375 70.2249 90.8713C70.2249 91.97 70.1412 92.6338 69.9749 92.8688C69.4087 93.2688 68.3249 93.6 66.7237 93.8688C66.6937 92.6338 66.4599 90.5338 66.0249 87.57C65.5612 84.6013 64.2574 82.0525 62.1237 79.9188C61.0249 78.7863 59.8924 77.9363 58.7249 77.37H58.6762C57.5099 77.9713 56.3774 78.82 55.2737 79.9188C53.1099 82.0525 51.8112 84.6013 51.3774 87.57C51.0112 89.9675 50.7562 92.0875 50.6249 93.9175C49.5949 93.7175 48.7249 93.4888 48.0274 93.22V93.22Z" fill="url(#paint9_linear_235_72)"/>
<path fill-rule="evenodd" clip-rule="evenodd" d="M63.3737 72.8188C62.8074 72.385 61.7237 71.6038 60.1274 70.4713C65.2587 73.235 68.2424 76.9213 69.0774 81.52C69.8724 85.6175 70.2587 88.7375 70.2249 90.8713C70.2249 91.97 70.1412 92.6338 69.9749 92.8688C69.4087 93.2688 68.3249 93.6 66.7237 93.8688L66.6749 92.7163C67.1437 93.0875 67.7099 93.2 68.3737 93.0688C69.0424 92.9025 69.5062 92.5025 69.7749 91.8675C69.9749 91.4038 69.9899 90.4363 69.8237 88.9663L69.5749 86.9213C69.2774 87.6188 68.7599 88.0538 68.0274 88.22C67.3924 88.3513 66.7237 88.1363 66.0249 87.57L65.7762 86.4175C66.3087 87.385 66.9574 87.8338 67.7249 87.77C68.4912 87.6675 68.9937 87.2188 69.2237 86.4175C69.4237 85.72 69.3412 84.5188 68.9749 82.8188L68.3249 80.4713L68.0762 81.9213C67.7437 82.8538 67.0949 83.2538 66.1224 83.1175C65.4937 83.0538 64.8437 82.8688 64.1749 82.57L63.4762 81.4663C64.5062 82.4675 65.5424 82.8188 66.5774 82.5213C68.3099 82.0188 68.1249 79.7675 66.0249 75.7688C65.5562 74.87 64.6774 73.8838 63.3737 72.8188V72.8188Z" fill="url(#paint10_linear_235_72)"/>
<path fill-rule="evenodd" clip-rule="evenodd" d="M48.0274 86.4175C48.2562 87.2188 48.7599 87.6675 49.5262 87.77C50.2924 87.8338 50.9424 87.385 51.4749 86.4175L51.2249 87.57C50.4587 88.1363 49.7949 88.3513 49.2237 88.22C48.7599 88.1175 48.3449 87.8688 47.9737 87.4675L47.6274 86.9213L47.3774 88.9663C47.2074 90.4363 47.2262 91.4038 47.4262 91.8675C47.6899 92.5025 48.1737 92.9025 48.8774 93.0688C49.5412 93.2 50.1074 93.0875 50.5762 92.7163L50.4737 93.8688C49.4774 93.7038 48.6424 93.4888 47.9737 93.22L47.2749 92.8688C47.1099 92.6338 47.0262 91.97 47.0262 90.8713C46.9924 88.7375 47.3587 85.6175 48.1249 81.52C48.6574 78.7863 49.9749 76.335 52.0749 74.1675C53.4762 72.7363 55.1562 71.5013 57.1237 70.4713C55.4587 71.6375 54.3749 72.4188 53.8774 72.8188C52.5737 73.9175 51.6937 74.9038 51.2249 75.7688C49.1262 79.7675 48.9399 82.0188 50.6737 82.5213C51.6749 82.8188 52.7099 82.4675 53.7749 81.4663L53.0274 82.57C52.4262 82.8688 51.7774 83.0538 51.0737 83.1175C50.1412 83.2538 49.4924 82.8538 49.1262 81.9213L48.8774 80.4713L48.2762 82.8188C47.9099 84.5188 47.8274 85.72 48.0274 86.4175V86.4175Z" fill="url(#paint11_linear_235_72)"/>
<path fill-rule="evenodd" clip-rule="evenodd" d="M53.8775 82.8188L54.8775 83.1713C55.845 83.4 57.0412 83.5025 58.4762 83.4688C60.7762 83.4 62.2612 83.235 62.925 82.9713C61.6262 83.7375 60.1075 84.1188 58.3737 84.1188C57.31 84.1525 56.1575 84.05 54.9262 83.82L53.4275 83.5175L53.8775 82.8188V82.8188Z" fill="#BD994D"/>
<path fill-rule="evenodd" clip-rule="evenodd" d="M52.3775 86.8188L53.775 87.5213C55.0437 87.985 56.5775 88.2 58.3737 88.1713C61.475 88.0688 63.4087 87.7363 64.175 87.17L63.2762 88.1175C62.2124 88.7525 60.5762 89.0838 58.3737 89.1188C56.64 89.1525 55.0737 89.0013 53.6762 88.6688L52.075 88.1175L52.3775 86.8188V86.8188Z" fill="#BD994D"/>
<path fill-rule="evenodd" clip-rule="evenodd" d="M57.7736 79.87C57.9436 79.7038 58.0274 80.0363 58.0274 80.8713C57.9936 81.7013 57.9249 82.2875 57.8274 82.6188C57.7249 82.8875 57.3586 83 56.7236 82.9713C56.0936 82.9363 55.6586 82.8 55.4249 82.57C55.2586 82.4388 55.5274 82.0188 56.2249 81.32C57.0599 80.5538 57.5736 80.07 57.7736 79.87V79.87Z" fill="#FFDD8C"/>
<path fill-rule="evenodd" clip-rule="evenodd" d="M58.125 84.7675C58.325 84.9038 58.3937 85.27 58.325 85.8713C58.2562 86.4038 58.125 86.8525 57.925 87.2188C57.7587 87.5213 57.06 87.585 55.825 87.4188C54.595 87.2188 53.8237 86.95 53.525 86.6188C53.2275 86.2525 53.3937 85.5538 54.0237 84.5188C54.16 84.3525 54.775 84.3188 55.8737 84.4213C56.9775 84.485 57.725 84.6013 58.125 84.7675V84.7675Z" fill="#FFDD8C"/>
<path fill-rule="evenodd" clip-rule="evenodd" d="M57.8762 91.77V92.8188C57.8412 93.3175 57.7249 93.605 57.5249 93.6688C57.0599 93.8688 56.3424 93.9375 55.3762 93.8688C54.3412 93.8013 53.6762 93.6 53.3737 93.2688C53.0762 92.9363 52.9249 92.3363 52.9249 91.4663C52.9249 90.6713 53.0074 90.085 53.1737 89.7188C53.3099 89.485 53.9887 89.4213 55.2249 89.5188C56.4262 89.6213 57.2412 89.8013 57.6762 90.07C57.9437 90.2363 58.0074 90.8025 57.8762 91.77V91.77Z" fill="#FFDD8C"/>
<path fill-rule="evenodd" clip-rule="evenodd" d="M59.375 79.9675C59.4088 79.8363 59.575 79.8213 59.8725 79.9188C60.21 80.0513 60.2588 80.1188 60.025 80.1188C59.8925 80.1188 59.81 80.285 59.775 80.6175V81.5688C59.7125 82.4388 59.6238 82.7363 59.5263 82.4675C59.4238 82.2675 59.36 81.8525 59.3263 81.2175C59.2925 80.5875 59.3063 80.1675 59.375 79.9675V79.9675Z" fill="#FFDD8C"/>
<path fill-rule="evenodd" clip-rule="evenodd" d="M60.8737 84.4213C60.4437 84.5875 60.1899 84.9675 60.1274 85.5688C60.0924 85.6713 60.1074 86.0513 60.1762 86.7213C60.2099 87.2525 60.1562 87.5213 60.0249 87.5213C59.8587 87.5213 59.7612 87.1363 59.7262 86.3688C59.6587 85.6713 59.6437 85.2025 59.6774 84.9675C59.6774 84.8363 59.9412 84.67 60.4737 84.47C61.6749 84.1038 61.8062 84.0838 60.8737 84.4213Z" fill="#FFDD8C"/>
<path fill-rule="evenodd" clip-rule="evenodd" d="M62.1774 89.1675C62.0411 89.47 61.7436 89.7038 61.2749 89.87C60.9424 89.9675 60.7424 90.2025 60.6736 90.5688C60.6399 90.6713 60.6249 90.9888 60.6249 91.52C60.6249 91.985 60.5611 92.4875 60.4249 93.02L60.3274 90.9688C60.3274 90.1675 60.3561 89.7525 60.4249 89.7188L62.1774 89.1675V89.1675Z" fill="#FFDD8C"/>
<path fill-rule="evenodd" clip-rule="evenodd" d="M36.1274 88.3713C36.0599 88.3375 35.9912 88.2875 35.9274 88.22C35.9912 88.2538 36.0737 88.3025 36.1762 88.3713H36.1274ZM48.7249 80.2163C48.8574 80.1188 48.9937 80.0213 49.1262 79.9188C48.8574 80.3538 48.6274 81.0713 48.4274 82.0675L46.8749 89.3675C46.8412 89.4013 46.8262 89.435 46.8262 89.47C46.4599 90.3338 46.1087 90.8513 45.7762 91.0175L44.3749 91.7213C42.4749 91.6525 40.4437 90.8863 38.2762 89.4213C36.1087 87.9175 34.9412 86.95 34.7749 86.52C34.2774 85.52 33.9399 84.02 33.7749 82.0188C33.7399 81.6863 33.7399 81.3688 33.7749 81.0713L34.0237 80.4175C36.3237 80.5538 39.1399 80.7 42.4749 80.8713C42.9437 80.8713 43.3737 80.8513 43.7749 80.8175L44.8237 80.9688C46.4262 81.2038 47.7249 80.9538 48.7249 80.2163V80.2163Z" fill="#82672F"/>
<path fill-rule="evenodd" clip-rule="evenodd" d="M85.0736 80.9688C85.0099 81.0375 84.9562 81.1 84.9262 81.1688C84.9562 81.135 85.0099 81.12 85.0736 81.12C85.0099 81.6525 84.8924 82.4188 84.7261 83.42C84.3599 85.285 83.4274 87.0188 81.9237 88.62H81.8749C78.1099 90.6175 75.7562 91.7013 74.8237 91.8675C73.2274 92.1363 72.0599 92.0038 71.3236 91.4663C70.5911 89.0688 70.2249 87.8338 70.2249 87.77C70.1899 87.77 70.1761 87.785 70.1761 87.8188L69.3749 84.7675V84.7188C69.3411 84.65 69.3112 84.5338 69.2774 84.3675L69.1749 84.02C68.9749 83.3175 68.6574 82.1363 68.2274 80.4713L67.6761 79.1188C67.9736 79.2213 68.3249 79.3525 68.7249 79.5188L81.2749 80.52C82.6411 80.4513 83.8774 80.3875 84.9749 80.3188C85.0437 80.3875 85.0736 80.6025 85.0736 80.9688V80.9688Z" fill="#82672F"/>
<path fill-rule="evenodd" clip-rule="evenodd" d="M56.0249 59.3188C57.0261 58.7525 57.6762 60.1675 57.9737 63.5713C58.1099 65.3 58.1449 67.0675 58.0761 68.8688L56.3236 69.7188C55.8599 69.9875 55.3562 70.3538 54.8237 70.8175C53.5599 70.1538 52.2261 69.3188 50.8249 68.3175L46.4261 65.07C46.7236 64.5375 47.8562 63.62 49.8237 62.3213C52.4899 60.52 54.5599 59.5188 56.0249 59.3188V59.3188Z" fill="#FFDD8C"/>
<path fill-rule="evenodd" clip-rule="evenodd" d="M48.975 73.42C48.2762 72.785 47.8412 72.3363 47.6762 72.0675C47.3437 71.6038 47.1775 71.0175 47.1775 70.3188C47.1775 69.2213 48.0562 68.855 49.8237 69.2213C50.5275 69.3525 51.7575 70.0025 53.525 71.1688L51.9775 72.7163C51.275 73.2838 50.7425 73.9175 50.3762 74.6213L48.975 73.42V73.42Z" fill="#FFDD8C"/>
<path fill-rule="evenodd" clip-rule="evenodd" d="M46.7775 72.0675C46.8112 72.57 46.675 72.9025 46.3775 73.0688C46.1087 73.1713 45.625 73.185 44.9262 73.1175C44.3262 73.0875 43.8775 72.8338 43.5737 72.37C43.4087 72.1013 43.2075 71.55 42.9737 70.72C42.8075 70.1188 42.89 69.65 43.2275 69.3188C43.525 69.02 43.96 68.835 44.5262 68.7713C44.9612 68.7038 45.4437 69.0838 45.9762 69.9188C46.44 70.72 46.7087 71.4375 46.7775 72.0675V72.0675Z" fill="#FFDD8C"/>
<path fill-rule="evenodd" clip-rule="evenodd" d="M46.3774 66.2713C46.8411 66.535 47.2074 66.95 47.4749 67.5213C47.7436 68.0875 47.6899 68.435 47.3236 68.5713C46.9924 68.7038 46.5911 68.5863 46.1274 68.22C45.6586 67.8538 45.3561 67.4538 45.2249 67.0188C45.1274 66.5838 45.2099 66.3013 45.4736 66.1688C45.7424 66.0375 46.0449 66.0713 46.3774 66.2713V66.2713Z" fill="#FFDD8C"/>
<path fill-rule="evenodd" clip-rule="evenodd" d="M40.3762 70.1675C40.9087 70.2363 41.1424 70.5538 41.0737 71.12C41.0112 71.7213 40.7274 71.95 40.2249 71.8188C39.7612 71.6863 39.5599 71.3688 39.6237 70.8713C39.6924 70.3688 39.9412 70.1338 40.3762 70.1675V70.1675Z" fill="#FFDD8C"/>
<path fill-rule="evenodd" clip-rule="evenodd" d="M60.9763 69.7188L59.2238 68.8688C59.16 67.0675 59.2088 65.3 59.375 63.5713C59.6438 60.1675 60.2738 58.7525 61.275 59.3188L62.8763 59.8213C64.2775 60.3538 65.81 61.1888 67.475 62.3213C69.4438 63.62 70.5763 64.5375 70.8738 65.07L66.475 68.3175C65.0738 69.3188 63.74 70.1538 62.475 70.8175C61.9438 70.3538 61.44 69.9875 60.9763 69.7188V69.7188Z" fill="#F0D184"/>
<path fill-rule="evenodd" clip-rule="evenodd" d="M63.7749 71.1688C65.5762 70.0025 66.8112 69.3525 67.4749 69.2213C69.2437 68.855 70.1274 69.2213 70.1274 70.3188C70.1274 71.0175 69.9562 71.6038 69.6237 72.0675C69.4574 72.3363 69.0237 72.785 68.3249 73.42L66.9237 74.6213C66.5574 73.9175 66.0249 73.2875 65.3274 72.7163L63.7749 71.1688Z" fill="#E3C276"/>
<path fill-rule="evenodd" clip-rule="evenodd" d="M70.5274 72.0675C70.5911 71.4375 70.8736 70.72 71.3774 69.9188C71.8749 69.0838 72.3436 68.7038 72.7736 68.7713C73.3449 68.835 73.7749 69.02 74.0774 69.3188C74.4436 69.65 74.5261 70.1188 74.3261 70.72C74.0911 71.55 73.8911 72.1013 73.7249 72.37C73.4274 72.8338 72.9736 73.0875 72.3724 73.1175C71.6749 73.185 71.1911 73.1713 70.9274 73.0688C70.6249 72.9025 70.4936 72.57 70.5274 72.0675V72.0675Z" fill="#CAA85C"/>
<path fill-rule="evenodd" clip-rule="evenodd" d="M70.9274 66.2713C71.2599 66.0713 71.5574 66.0375 71.8262 66.1688C72.1237 66.3013 72.2074 66.5838 72.0749 67.0188C71.9437 67.4538 71.6399 67.8538 71.1762 68.22C70.7074 68.5863 70.3074 68.7038 69.9749 68.5713C69.6099 68.435 69.5599 68.0875 69.8237 67.5213C70.0924 66.95 70.4587 66.535 70.9274 66.2713V66.2713Z" fill="#E3C276"/>
<path fill-rule="evenodd" clip-rule="evenodd" d="M76.9237 70.1675C77.3587 70.1338 77.6075 70.3688 77.6762 70.8713C77.7387 71.3688 77.5437 71.6863 77.075 71.8188C76.5775 71.95 76.2937 71.7213 76.225 71.12C76.1575 70.5538 76.3912 70.2363 76.9237 70.1675V70.1675Z" fill="#CAA85C"/>
<path fill-rule="evenodd" clip-rule="evenodd" d="M58.2274 70.72C59.5599 70.685 60.6449 71.3838 61.4749 72.8188C62.3437 74.255 62.2412 75.085 61.1762 75.3188C60.9087 75.3875 60.2924 75.3188 59.3262 75.1188C58.4912 74.9538 57.6762 75.0363 56.8749 75.3688C56.2062 75.6363 55.6449 75.5875 55.1762 75.2163C54.7074 74.85 54.5949 74.3188 54.8237 73.62C54.9899 72.985 55.5424 72.3213 56.4749 71.6188C57.2749 71.0175 57.8562 70.72 58.2274 70.72V70.72Z" fill="#FFDD8C"/>
<path fill-rule="evenodd" clip-rule="evenodd" d="M94.3263 48.8688C95.2588 47.7025 96.3425 47.3213 97.5738 47.7163C98.2075 47.8875 98.74 48.185 99.175 48.62L99.0238 53.2688C98.36 56.8675 96.64 59.9675 93.8775 62.57C91.5775 64.7038 88.8238 66.4375 85.625 67.77L81.475 69.1675C81.1425 69.0013 80.7425 68.5175 80.2738 67.7163L79.2238 65.7688L83.8775 64.3188C87.3775 62.8188 90.1412 60.7538 92.1775 58.1175C93.775 56.0513 94.61 53.8838 94.6775 51.6188L94.3263 48.8688V48.8688Z" fill="#883B28"/>
<path fill-rule="evenodd" clip-rule="evenodd" d="M98.8237 48.3175L99.175 48.62L99.0237 53.2688C98.36 56.8675 96.64 59.9675 93.8775 62.57C91.5775 64.7038 88.8237 66.4375 85.625 67.77L81.475 69.1675C81.1762 69.035 80.7562 68.5513 80.225 67.7163C79.8587 67.1213 79.6775 66.7213 79.6775 66.52C79.9412 67.385 80.8937 67.6875 82.525 67.4188C84.1262 67.15 86.1275 66.355 88.525 65.0213C91.06 63.62 93.2075 61.6675 94.975 59.1675C96.3775 57.17 97.095 55.6175 97.1237 54.5188C97.1237 53.9175 96.9087 53.4538 96.475 53.1175C95.7762 52.6538 95.3412 52.3013 95.1762 52.0675L94.6775 51.3688C94.6775 50.6713 94.6237 50.1188 94.5262 49.7188L98.8237 48.3175V48.3175Z" fill="#571919"/>
<path fill-rule="evenodd" clip-rule="evenodd" d="M88.9749 62.9175C87.6762 63.5513 87.1774 63.7175 87.4749 63.42C87.6762 63.22 88.3099 62.7363 89.3749 61.97C90.4737 61.135 92.1437 59.1375 94.3749 55.9688C94.0424 58.9663 92.2412 61.2863 88.9749 62.9175Z" fill="#AD5640"/>
<path fill-rule="evenodd" clip-rule="evenodd" d="M22.8274 48.8688L22.4749 51.6188C22.5436 53.8838 23.3736 56.0513 24.9749 58.1175C27.0061 60.7538 29.4924 62.8 32.4261 64.27C33.8911 65.0363 35.1561 65.52 36.2249 65.72L36.4261 66.2713C36.5236 66.735 36.5236 67.17 36.4261 67.57C36.2599 68.4688 36.0111 69.0013 35.6736 69.1675C34.5411 68.9375 33.1586 68.4688 31.5236 67.77C28.3249 66.4375 25.5761 64.7038 23.2761 62.57C20.5074 59.9675 18.7936 56.8675 18.1249 53.2688L17.9736 48.62L19.5749 47.7163C20.8449 47.3163 21.9236 47.7025 22.8274 48.8688V48.8688Z" fill="#883B28"/>
<path fill-rule="evenodd" clip-rule="evenodd" d="M18.4275 48.42C18.4575 48.3175 19.4925 48.1175 21.5237 47.8188C21.9925 48.02 22.4262 48.3713 22.8275 48.8688L22.475 51.6188C22.5437 53.8838 23.3737 56.0513 24.975 58.1175C27.0062 60.7538 29.775 62.8338 33.2762 64.3675C35.0437 65.1338 36.5912 65.6363 37.925 65.8713L37.725 66.4663C37.5587 66.9013 37.3437 67.2875 37.075 67.6188C36.5087 68.3863 36.045 68.9038 35.6737 69.1675C34.5412 68.9038 33.1737 68.435 31.5775 67.77C33.74 68.4 34.9075 68.5513 35.0737 68.22C35.4737 67.4188 35.1275 66.6863 34.0237 66.0175C32.3237 65.1875 30.9275 64.47 29.8237 63.8688C27.1587 62.4338 25.025 60.6513 23.4275 58.5175C23.2275 58.2538 22.725 57.2388 21.9237 55.4713C21.26 53.9375 20.7075 53.0688 20.2737 52.8688C19.6437 52.6338 18.8575 52.2388 17.925 51.6675L17.8762 49.87C18.11 49.035 18.2912 48.5513 18.4275 48.42V48.42Z" fill="#571919"/>
<path fill-rule="evenodd" clip-rule="evenodd" d="M19.3262 53.3713C20.825 56.8675 22.06 59.1675 23.0275 60.27C23.9262 61.2713 24.4237 61.8675 24.5262 62.0675C24.7612 62.4388 24.3112 62.17 23.1737 61.2713C20.3075 59.0013 19.0237 56.3688 19.3262 53.3713V53.3713Z" fill="#AD5640"/>
<path fill-rule="evenodd" clip-rule="evenodd" d="M23.6275 47.57C24.2237 47.7025 24.4775 48.2 24.375 49.0688C24.2437 49.9675 23.8237 50.5688 23.125 50.8713C20.7275 51.77 18.7937 51.8188 17.3237 51.0175C16.3912 50.52 15.86 49.9538 15.7275 49.3188C15.625 48.7863 15.845 48.3025 16.3775 47.8688C16.8112 47.5363 17.9937 47.37 19.9262 47.37C21.5237 47.37 22.7587 47.4388 23.6275 47.57V47.57Z" fill="url(#paint12_linear_235_72)"/>
<path fill-rule="evenodd" clip-rule="evenodd" d="M24.0775 44.8213C25.0737 45.085 25.6587 45.6363 25.825 46.4663C25.9912 47.37 25.5562 48.1175 24.5262 48.7175C23.4275 49.3525 22.075 49.7188 20.4737 49.8213C18.8775 49.9538 17.5925 49.8013 16.6262 49.3675C15.625 48.9663 15.01 48.4 14.775 47.6675C14.5412 46.935 14.8775 46.355 15.7762 45.92C16.7775 45.4175 18.0762 45.0513 19.6775 44.8213C21.44 44.5525 22.91 44.5525 24.0775 44.8213V44.8213Z" fill="url(#paint13_linear_235_72)"/>
<path fill-rule="evenodd" clip-rule="evenodd" d="M17.275 47.0188C18.4087 47.385 19.1262 47.8875 19.4237 48.5175C19.7262 49.1525 19.5262 49.45 18.8237 49.4213C17.2612 49.3188 16.1425 48.855 15.4737 48.02C15.0437 47.4875 15.025 47.1213 15.425 46.9213C15.825 46.7213 16.44 46.755 17.275 47.0188Z" fill="#AD5640"/>
<path fill-rule="evenodd" clip-rule="evenodd" d="M18.1249 49.9675C18.8236 50.27 18.9936 50.5 18.6274 50.6713C18.2274 50.8375 17.7736 50.8025 17.2749 50.5688C16.7774 50.3 16.6399 50.085 16.8749 49.9188C17.1099 49.7188 17.5249 49.7388 18.1249 49.9675V49.9675Z" fill="#AD5640"/>
<path fill-rule="evenodd" clip-rule="evenodd" d="M16.3237 47.2675C16.9237 47.3363 17.2412 47.5513 17.2749 47.9175C17.3099 48.2538 17.0599 48.3513 16.5237 48.22C16.0249 48.0875 15.7562 47.8875 15.7274 47.6188C15.6937 47.3213 15.8937 47.2038 16.3237 47.2675V47.2675Z" fill="#E8856D"/>
<path fill-rule="evenodd" clip-rule="evenodd" d="M20.6249 27.8188C23.1586 28.5175 24.9611 29.27 26.0249 30.07C26.7236 30.6025 27.0261 31.52 26.9236 32.8188C26.8599 33.3175 26.6061 34.5188 26.1761 36.4175C25.7424 38.2538 25.4737 39.9675 25.3762 41.5688C25.3074 42.9713 25.2249 43.8013 25.1274 44.0688C24.8924 44.9388 24.5411 45.52 24.0774 45.8175C23.6424 46.0863 22.6899 46.3688 21.2249 46.6675C19.8586 46.97 18.8236 47.1213 18.1249 47.1213C17.6899 47.1213 17.1236 47.0188 16.4261 46.8188C15.3899 46.52 14.5062 45.9888 13.7749 45.2213C12.3774 43.6838 11.1424 41.0513 10.0736 37.3213C8.40865 31.55 9.4774 28.185 13.2761 27.2188C15.1074 26.755 17.5586 26.95 20.6249 27.8188Z" fill="url(#paint14_linear_235_72)"/>
<path fill-rule="evenodd" clip-rule="evenodd" d="M26.0249 30.07C26.7237 30.6025 27.0262 31.52 26.9237 32.8188C26.8599 33.3175 26.6062 34.5188 26.1762 36.4175C25.7424 38.2538 25.4737 39.9675 25.3762 41.5688C25.3074 42.9713 25.2249 43.8013 25.1274 44.0688C24.8924 44.9388 24.5599 45.52 24.1262 45.8175C23.7249 46.0863 22.8412 46.355 21.4749 46.6188C23.0762 45.685 23.8774 44.0013 23.8774 41.5688C23.8774 40.8025 23.9937 39.5038 24.2237 37.6675C24.4574 35.6363 24.5949 34.3525 24.6237 33.82C24.6924 32.985 23.9937 32.2675 22.5249 31.6675L20.2737 30.9688C19.6774 31.0375 18.1249 31.0713 15.6249 31.0713C14.3262 31.0713 13.2274 30.8175 12.3237 30.3188C11.5237 29.885 10.9912 29.3375 10.7274 28.6688C11.3574 27.9363 12.2074 27.4538 13.2762 27.2188C15.1074 26.75 17.5587 26.95 20.6249 27.8188C23.1587 28.5175 24.9612 29.27 26.0249 30.07V30.07Z" fill="#420B12"/>
<path fill-rule="evenodd" clip-rule="evenodd" d="M25.0737 5.02127C24.3412 5.55377 23.8237 5.93501 23.525 6.16876C22.9587 6.63751 22.725 7.12126 22.8275 7.61876C23.2562 9.38626 22.7925 10.735 21.4262 11.6675C21.025 11.935 20.7762 12.2388 20.6737 12.57C20.5762 12.8338 20.5562 13.2688 20.625 13.8688C20.6937 14.5375 20.5762 15.105 20.2737 15.5688C19.775 16.2375 19.4237 16.8863 19.2237 17.5213C19.0912 17.9175 19.2437 18.5025 19.6775 19.27C20.0737 20.0025 20.1275 20.6363 19.8237 21.1688C19.39 22.0038 19.39 23.22 19.8237 24.8213C19.9262 25.1538 19.8925 25.8025 19.7262 26.77C19.595 27.5025 19.6775 27.9025 19.975 27.9713C20.9425 28.1713 20.4937 28.62 18.6275 29.3188C16.7575 30.0213 15.0737 30.27 13.5737 30.07C11.9775 30.0025 11.0112 29.885 10.6737 29.7188C10.3075 29.5188 9.98999 28.6838 9.72624 27.2188C8.95999 22.8538 8.64249 19.9538 8.77499 18.5175C9.20874 14.8213 11.2937 11.0863 15.025 7.32126C16.9575 5.35376 19.3112 4.28377 22.075 4.11877C23.0762 4.05002 23.8912 4.13751 24.5262 4.36751C25.1562 4.56751 25.3412 4.78752 25.0737 5.02127V5.02127Z" fill="url(#paint15_linear_235_72)"/>
<path fill-rule="evenodd" clip-rule="evenodd" d="M31.1762 13.3713C31.8062 15.8025 31.9924 17.8875 31.7237 19.6213C31.4937 21.32 30.8937 23.435 29.9262 25.9688C28.7937 28.9038 27.7387 30.5688 26.7774 30.9688C25.8099 31.3688 24.7749 31.52 23.6762 31.4175C22.7737 31.32 21.9924 31.0713 21.3237 30.6713C20.6937 30.3 20.1899 29.8363 19.8237 29.27C19.4237 28.635 19.3749 28.1363 19.6774 27.77C19.7749 27.6675 20.1762 27.3363 20.8737 26.77C21.3087 26.4038 21.4937 26.0713 21.4262 25.7688C21.2599 25.1388 21.4599 24.5038 22.0262 23.8688C22.6562 23.1713 22.9737 22.4188 22.9737 21.6188C22.9737 21.32 23.0912 21.0513 23.3249 20.8175C23.6274 20.5875 23.8424 20.4025 23.9749 20.27C24.3749 19.87 24.6437 19.05 24.7749 17.8188C24.8437 17.4875 24.9749 17.2188 25.1762 17.0188C25.5074 16.6188 25.7424 16.3013 25.8737 16.0713C26.0737 15.735 26.2112 15.3338 26.2749 14.87C26.3087 14.3675 26.3912 13.9863 26.5237 13.7175C26.6937 13.42 26.9924 13.1513 27.4262 12.9175C27.8562 12.6875 28.1249 12.4538 28.2274 12.2188C28.3599 11.985 28.4087 11.7213 28.3737 11.4175C28.3449 11.0175 28.3449 10.7538 28.3737 10.6175C28.4424 9.88501 28.4912 9.45001 28.5249 9.31876C28.7249 8.85501 29.0774 8.86876 29.5749 9.36751C30.1074 9.90376 30.6449 11.2375 31.1762 13.3713Z" fill="url(#paint16_linear_235_72)"/>
<path fill-rule="evenodd" clip-rule="evenodd" d="M11.5775 31.7213C12.0062 31.6863 12.2612 31.8038 12.3237 32.0675C12.3587 32.2038 12.3237 32.5213 12.2262 33.02C12.095 33.7863 11.9087 34.3675 11.675 34.7675C11.4062 35.27 11.1575 35.2513 10.9275 34.7188C10.19 32.8875 10.41 31.8863 11.5775 31.7213V31.7213Z" fill="#D67F65"/>
<path fill-rule="evenodd" clip-rule="evenodd" d="M21.7775 42.9713C22.5437 42.9025 22.7737 43.3375 22.475 44.27C22.2075 45.2025 21.7437 45.7 21.0737 45.7688C20.4437 45.8375 20.2737 45.4025 20.5762 44.47C20.8737 43.5025 21.275 43.005 21.7775 42.9713Z" fill="#3D0D13"/>
<path fill-rule="evenodd" clip-rule="evenodd" d="M22.8274 39.3675C22.9249 39.7675 22.8561 40.2213 22.6274 40.72C22.3586 41.2525 22.0949 41.2375 21.8262 40.6713C21.5237 40.0025 21.5574 39.4213 21.9236 38.9175C22.2899 38.42 22.5924 38.5713 22.8274 39.3675V39.3675Z" fill="#3D0D13"/>
<path fill-rule="evenodd" clip-rule="evenodd" d="M12.0749 17.2188C12.4412 18.0538 12.3437 18.6538 11.7774 19.02C11.1762 19.45 10.8737 19.3375 10.8737 18.6688C10.8737 18.0338 11.0112 17.5025 11.2749 17.0675C11.5424 16.6038 11.8112 16.6525 12.0749 17.2188V17.2188Z" fill="#3D0D13"/>
<path fill-rule="evenodd" clip-rule="evenodd" d="M11.8263 16.8188C12.2263 17.585 12.1237 18.1513 11.5237 18.5175C10.9275 18.8888 10.625 18.7713 10.625 18.1713C10.625 17.605 10.7562 17.1213 11.025 16.7213C11.2937 16.2525 11.5575 16.2863 11.8263 16.8188V16.8188Z" fill="url(#paint17_radial_235_72)"/>
<path fill-rule="evenodd" clip-rule="evenodd" d="M17.6274 24.2213C17.7587 24.8213 17.9737 25.5688 18.2762 26.4713C18.3737 27.1363 18.1249 27.5025 17.5249 27.57C16.8599 27.6675 16.4399 27.4875 16.2749 27.0188C16.1762 26.75 16.1274 26.0713 16.1274 24.9675C16.1274 24.1675 16.3574 23.7175 16.8262 23.62C17.2612 23.5513 17.5249 23.7525 17.6274 24.2213V24.2213Z" fill="#3D0D13"/>
<path fill-rule="evenodd" clip-rule="evenodd" d="M17.4262 22.8188C16.9237 22.6538 16.6399 22.17 16.5774 21.3688C16.4749 20.6025 16.6749 20.2213 17.1774 20.2213C17.7099 20.2213 17.9937 20.685 18.0274 21.6188C18.0612 22.585 17.8562 22.985 17.4262 22.8188V22.8188Z" fill="#3D0D13"/>
<path fill-rule="evenodd" clip-rule="evenodd" d="M15.1762 27.7213C15.6737 27.6875 15.9912 27.9513 16.1275 28.5175C16.26 29.0838 15.9762 29.3188 15.2737 29.2213C14.61 29.0838 14.2775 28.82 14.2775 28.42C14.2775 28.02 14.575 27.785 15.1762 27.7213V27.7213Z" fill="#3D0D13"/>
<path fill-rule="evenodd" clip-rule="evenodd" d="M13.975 23.7713C14.61 24.7675 14.6437 25.5 14.0775 25.9688C13.4762 26.4038 13.0075 26.1838 12.6762 25.3188C12.3775 24.5875 12.4412 24.02 12.8762 23.62C13.31 23.22 13.6762 23.2688 13.975 23.7713Z" fill="#521617"/>
<path fill-rule="evenodd" clip-rule="evenodd" d="M13.6761 23.3713C14.3061 24.3675 14.3411 25.105 13.7749 25.5688C13.1736 26.0375 12.7099 25.8375 12.3774 24.9675C12.1099 24.2013 12.1774 23.62 12.5736 23.22C13.0074 22.8188 13.3736 22.8688 13.6761 23.3713Z" fill="url(#paint18_radial_235_72)"/>
<path fill-rule="evenodd" clip-rule="evenodd" d="M9.57493 25.5687C10.2099 25.1387 10.6399 25.3187 10.8737 26.12C11.1087 26.8862 11.0112 27.4187 10.5762 27.7212C10.1412 28.02 9.74118 27.8187 9.37493 27.1212C9.00868 26.4525 9.07743 25.935 9.57493 25.5687Z" fill="url(#paint19_radial_235_72)"/>
<path fill-rule="evenodd" clip-rule="evenodd" d="M17.075 40.5688C17.3775 40.07 17.7437 40.0213 18.1737 40.4175C18.6087 40.8175 18.6762 41.4038 18.3737 42.17C18.0762 43.0338 17.6275 43.235 17.0262 42.77C16.46 42.3013 16.475 41.5688 17.075 40.5688V40.5688Z" fill="#521617"/>
<path fill-rule="evenodd" clip-rule="evenodd" d="M16.5237 39.8213C16.8262 39.3188 17.1925 39.27 17.6275 39.67C18.0612 40.07 18.125 40.6513 17.8275 41.4175C17.49 42.2875 17.0262 42.4875 16.4262 42.0188C15.86 41.55 15.8937 40.8175 16.5237 39.8213Z" fill="url(#paint20_radial_235_72)"/>
<path fill-rule="evenodd" clip-rule="evenodd" d="M21.8262 4.82127C22.4612 4.78752 22.6562 4.82127 22.4262 4.91877C21.8262 5.18752 21.225 5.45127 20.625 5.72002C17.89 6.98502 15.7075 8.58626 14.0775 10.52C13.31 11.4525 12.51 12.6388 11.675 14.0688C11.1762 14.9388 10.9087 15.2213 10.8737 14.9188C10.845 14.4213 11.1912 13.5375 11.9237 12.2675C12.725 10.8375 13.6912 9.55251 14.8237 8.42001C15.9275 7.32126 17.1925 6.43752 18.6275 5.76877C19.8237 5.20252 20.8937 4.88502 21.8262 4.82127V4.82127Z" fill="url(#paint21_linear_235_72)"/>
<path fill-rule="evenodd" clip-rule="evenodd" d="M29.6237 10.6713C29.7949 10.735 29.8237 11.0863 29.7262 11.7213C29.6237 12.4188 29.3749 12.9513 28.9749 13.3175C28.6762 13.62 28.3449 14.2838 27.9737 15.3188C27.6074 16.355 27.3099 16.97 27.0749 17.17C26.8062 17.4038 26.6062 17.9025 26.4749 18.6688C26.3424 19.5038 26.1762 20.0513 25.9762 20.3188C25.8737 20.485 25.4937 20.9888 24.8237 21.8188C24.3262 22.4188 23.9937 22.9025 23.8237 23.2688C23.5599 23.8013 23.5599 23.6 23.8237 22.6675C24.0574 21.77 24.3262 21.135 24.6237 20.7688C25.5274 19.67 25.9762 18.6888 25.9762 17.8188C25.9762 17.355 26.1274 16.935 26.4262 16.5688C26.8262 16.1688 27.1237 15.8175 27.3237 15.52C27.4899 15.2213 27.6562 14.7875 27.8274 14.2213C27.9587 13.7175 28.1249 13.3375 28.3249 13.0688C28.5937 12.7025 28.8424 12.1363 29.0774 11.3688C29.2087 10.8025 29.3949 10.5688 29.6237 10.6713V10.6713Z" fill="url(#paint22_linear_235_72)"/>
<path fill-rule="evenodd" clip-rule="evenodd" d="M93.4761 47.57C94.3749 47.4388 95.6099 47.37 97.1774 47.37C99.1399 47.37 100.327 47.5363 100.727 47.8688C101.294 48.3025 101.509 48.7863 101.377 49.3188C101.275 49.9538 100.742 50.52 99.7749 51.0175C98.3449 51.8188 96.4261 51.77 94.0236 50.8713C93.3249 50.5688 92.9099 49.9675 92.7736 49.0688C92.6411 48.2 92.8761 47.7025 93.4761 47.57V47.57Z" fill="url(#paint23_linear_235_72)"/>
<path fill-rule="evenodd" clip-rule="evenodd" d="M93.0762 44.8213C94.2437 44.5525 95.7075 44.5525 97.475 44.8213C99.0425 45.0513 100.341 45.4175 101.377 45.92C102.241 46.355 102.559 46.935 102.324 47.6675C102.124 48.4 101.524 48.9663 100.527 49.3675C99.56 49.8013 98.2762 49.9538 96.675 49.8213C95.0737 49.7188 93.725 49.3525 92.6275 48.7175C91.5912 48.1175 91.1575 47.37 91.3237 46.4663C91.4937 45.6363 92.075 45.085 93.0762 44.8213V44.8213Z" fill="url(#paint24_linear_235_72)"/>
<path fill-rule="evenodd" clip-rule="evenodd" d="M94.0774 46.8675C95.2099 47.2388 95.9274 47.7363 96.2249 48.3713C96.5237 49.0013 96.3237 49.3038 95.6249 49.27C94.8237 49.2013 94.2237 49.1038 93.8237 48.9663C93.2274 48.7713 92.7249 48.42 92.3237 47.9175C91.8899 47.385 91.8749 47.0188 92.2749 46.8188C92.6412 46.5838 93.2424 46.6038 94.0774 46.8675V46.8675Z" fill="#AD5640"/>
<path fill-rule="evenodd" clip-rule="evenodd" d="M95.0737 50.1188C95.81 50.4175 95.9762 50.6513 95.5762 50.8175C95.21 50.9888 94.7612 50.935 94.2237 50.6713C93.725 50.4025 93.5937 50.1875 93.8237 50.0213C94.0575 49.8213 94.4775 49.855 95.0737 50.1188V50.1188Z" fill="#AD5640"/>
<path fill-rule="evenodd" clip-rule="evenodd" d="M93.1786 47.1213C93.7749 47.185 94.0911 47.4038 94.1261 47.77C94.1261 48.1025 93.8574 48.2 93.3249 48.0688C92.8274 47.9363 92.5774 47.7363 92.5774 47.4675C92.5436 47.2038 92.7436 47.0875 93.1786 47.1213V47.1213Z" fill="#E8856D"/>
<path fill-rule="evenodd" clip-rule="evenodd" d="M107.974 36.6675C106.875 40.7688 105.591 43.6688 104.126 45.3688C103.36 46.2375 102.426 46.8375 101.324 47.17C100.625 47.37 100.044 47.4675 99.5749 47.4675C98.8424 47.5025 97.7587 47.355 96.3237 47.0188C94.6924 46.6525 93.5112 46.2038 92.7737 45.6713C91.9087 45.0363 91.5237 44.255 91.6262 43.3175C91.8262 41.95 91.9237 41.1538 91.9237 40.92C91.9237 39.7188 91.6599 37.9713 91.1274 35.6713C90.6587 33.5025 90.4099 32.185 90.3762 31.7213C90.2737 30.285 90.5912 29.27 91.3237 28.6688C92.4262 27.77 94.3062 26.9213 96.9774 26.12C100.176 25.1875 102.725 24.9875 104.624 25.52C108.594 26.5838 109.712 30.3 107.974 36.6675V36.6675Z" fill="url(#paint25_linear_235_72)"/>
<path fill-rule="evenodd" clip-rule="evenodd" d="M104.624 25.52C108.594 26.5838 109.707 30.3 107.974 36.6675C106.875 40.7688 105.591 43.6688 104.126 45.3688C103.36 46.2375 102.426 46.8375 101.324 47.17C100.625 47.37 100.044 47.4675 99.575 47.4675C98.8425 47.5025 97.7587 47.355 96.3237 47.0188L94.775 46.6188C98.0425 46.985 100.41 46.4863 101.875 45.1188C103.276 43.855 104.61 41.0513 105.874 36.7213C106.509 34.5525 106.391 32.9025 105.527 31.77C104.326 30.2025 101.826 29.6363 98.0275 30.07C95.9625 30.3338 94.2437 30.3 92.8762 29.9675L91.475 29.3675L92.9737 27.7163C94.6775 26.8525 96.5425 26.1838 98.5737 25.72C101.045 25.1538 103.061 25.085 104.624 25.52V25.52Z" fill="#420B12"/>
<path fill-rule="evenodd" clip-rule="evenodd" d="M93.9749 2.32126C93.2074 1.78376 92.6562 1.35502 92.3237 1.01752C92.0599 0.753766 92.2412 0.500016 92.8762 0.270016C93.5449 0.0362662 94.3949 -0.0462307 95.4249 0.0212693C98.3249 0.187519 100.791 1.35502 102.827 3.51752C106.694 7.68752 108.857 11.8188 109.326 15.92C109.492 17.5213 109.16 20.72 108.325 25.52C108.027 27.15 107.69 28.0688 107.324 28.2688C106.426 28.3713 105.425 28.5025 104.326 28.6688C102.759 28.9038 100.991 28.62 99.0237 27.8188C97.0949 27.0525 96.6262 26.55 97.6274 26.32C97.9249 26.2525 98.0274 25.8175 97.9249 25.0213C97.7587 23.9525 97.7249 23.22 97.8274 22.8188C98.2274 21.0175 98.2274 19.685 97.8274 18.82C97.5249 18.22 97.5737 17.5363 97.9737 16.77C98.3737 15.935 98.5112 15.285 98.3737 14.8213C98.1737 14.1188 97.8274 13.3863 97.3237 12.6188C96.9924 12.15 96.8749 11.535 96.9774 10.7688C97.0412 10.105 97.0262 9.62126 96.9237 9.31876C96.8262 8.95251 96.5574 8.62002 96.1274 8.31752C94.6924 7.32127 94.1937 5.81751 94.6237 3.82001C94.7612 3.28751 94.5412 2.78501 93.9749 2.32126V2.32126Z" fill="url(#paint26_linear_235_72)"/>
<path fill-rule="evenodd" clip-rule="evenodd" d="M89.8774 9.71877C90.3412 9.98752 90.6587 10.285 90.8249 10.6175C90.9574 10.92 91.0449 11.335 91.0737 11.8675C91.1424 12.37 91.2749 12.8188 91.4749 13.22C91.6062 13.4888 91.8599 13.835 92.2262 14.27C92.4262 14.5038 92.5587 14.7875 92.6274 15.1188C92.7587 16.4863 93.0424 17.385 93.4762 17.8188L94.1262 18.4688C94.3599 18.7375 94.4774 19.02 94.4774 19.3188C94.4774 20.1875 94.8099 21.0175 95.4737 21.8188C96.0737 22.4875 96.2937 23.185 96.1274 23.9175C96.0249 24.2838 96.2112 24.65 96.6749 25.0213C97.4412 25.6513 97.8562 26.0175 97.9249 26.12C98.2562 26.55 98.2074 27.1013 97.7737 27.77C97.4074 28.3713 96.8949 28.8888 96.2249 29.3188C95.5274 29.7525 94.7074 30.0363 93.7749 30.1675C92.6074 30.3 91.5237 30.1388 90.5274 29.67C89.5262 29.235 88.4424 27.385 87.2749 24.1188C86.2399 21.2863 85.6099 18.9525 85.3762 17.1213C85.1412 15.1875 85.3274 12.9025 85.9274 10.27C86.4887 7.90252 87.0599 6.41753 87.6274 5.81753C88.1587 5.25128 88.5249 5.22127 88.7249 5.72002C88.7599 5.88627 88.8087 6.36877 88.8774 7.17002C88.9062 7.30127 88.8912 7.60502 88.8237 8.06877C88.7937 8.37127 88.8574 8.66877 89.0237 8.97127C89.1262 9.20127 89.4087 9.45002 89.8774 9.71877V9.71877Z" fill="url(#paint27_linear_235_72)"/>
<path fill-rule="evenodd" clip-rule="evenodd" d="M92.9736 32.17C93.7749 32.2675 94.1399 32.785 94.0774 33.7175C94.0424 34.2838 93.8911 34.87 93.6274 35.4713C93.3936 36.0375 93.1449 36.0513 92.8761 35.52C92.6411 35.085 92.4411 34.435 92.2749 33.5713C92.1774 33.0338 92.1436 32.6875 92.1774 32.5213C92.2411 32.2188 92.5099 32.1013 92.9736 32.17Z" fill="#D67F65"/>
<path fill-rule="evenodd" clip-rule="evenodd" d="M101.875 40.9688C102.676 40.9 102.925 41.3888 102.627 42.4188C102.359 43.4538 101.86 44.0013 101.127 44.0688C100.494 44.1375 100.327 43.6538 100.625 42.6188C100.927 41.5838 101.342 41.0375 101.875 40.9688Z" fill="#450F15"/>
<path fill-rule="evenodd" clip-rule="evenodd" d="M103.027 37.3213C103.56 36.6525 103.891 36.6525 104.024 37.3213C104.16 37.985 103.94 38.5713 103.374 39.0688C102.876 39.5375 102.627 39.435 102.627 38.7713C102.627 38.1363 102.759 37.6538 103.027 37.3213V37.3213Z" fill="#450F15"/>
<path fill-rule="evenodd" clip-rule="evenodd" d="M107.177 14.47C107.577 15.3688 107.475 16.0375 106.875 16.4663C106.245 16.935 105.927 16.8038 105.927 16.0713C105.927 15.3688 106.06 14.7875 106.327 14.3188C106.626 13.7863 106.909 13.835 107.177 14.47V14.47Z" fill="#3D0D13"/>
<path fill-rule="evenodd" clip-rule="evenodd" d="M106.929 14.02C107.324 14.85 107.226 15.485 106.626 15.92C105.991 16.355 105.679 16.2375 105.679 15.5687C105.679 14.9387 105.81 14.3863 106.074 13.9175C106.377 13.42 106.66 13.4538 106.929 14.02V14.02Z" fill="url(#paint28_radial_235_72)"/>
<path fill-rule="evenodd" clip-rule="evenodd" d="M105.625 21.97C106.524 21.0375 107.06 20.6175 107.226 20.72C107.324 20.7838 107.377 21.3688 107.377 22.4675C107.377 23.5375 107.192 24.4213 106.826 25.1188C106.391 25.8863 105.825 26.2038 105.127 26.0713C104.457 25.9688 104.244 25.3875 104.477 24.3188C104.712 23.3513 105.092 22.57 105.625 21.97V21.97Z" fill="#3D0D13"/>
<path fill-rule="evenodd" clip-rule="evenodd" d="M105.874 20.07C105.444 20.27 105.244 19.8363 105.274 18.7713C105.307 17.7363 105.591 17.2188 106.127 17.2188C106.694 17.2188 106.924 17.6538 106.826 18.5175C106.724 19.3863 106.406 19.9038 105.874 20.07Z" fill="#3D0D13"/>
<path fill-rule="evenodd" clip-rule="evenodd" d="M102.627 26.0713C103.256 26.135 103.594 26.4038 103.627 26.8675C103.627 27.3013 103.256 27.585 102.525 27.7163C101.826 27.8538 101.524 27.605 101.626 26.97C101.757 26.335 102.095 26.0375 102.627 26.0713V26.0713Z" fill="#3D0D13"/>
<path fill-rule="evenodd" clip-rule="evenodd" d="M93.1249 19.3188C93.7937 20.4513 93.8237 21.2713 93.2274 21.77C92.5924 22.2675 92.1099 22.0375 91.7774 21.0713C91.4749 20.2363 91.5574 19.6013 92.0262 19.1675C92.4612 18.7375 92.8274 18.7863 93.1249 19.3188Z" fill="#521617"/>
<path fill-rule="evenodd" clip-rule="evenodd" d="M92.8274 18.9175C93.4912 20.0513 93.5249 20.8713 92.9249 21.3688C92.2949 21.8675 91.8062 21.6375 91.4749 20.6713C91.1762 19.8363 91.2399 19.2013 91.6749 18.7713C92.1099 18.3375 92.4899 18.3863 92.8274 18.9175Z" fill="url(#paint29_radial_235_72)"/>
<path fill-rule="evenodd" clip-rule="evenodd" d="M92.8274 18.9175C93.4912 20.0513 93.5249 20.8713 92.9249 21.3688C92.2949 21.8675 91.8062 21.6375 91.4749 20.6713C91.1762 19.8363 91.2399 19.2013 91.6749 18.7713C92.1099 18.3375 92.4899 18.3863 92.8274 18.9175Z" fill="url(#paint30_radial_235_72)"/>
<path fill-rule="evenodd" clip-rule="evenodd" d="M93.3737 26.4662C94.0425 26.0025 94.4925 26.2037 94.7262 27.0675C94.99 27.9025 94.8775 28.4887 94.375 28.82C93.94 29.1525 93.525 28.9525 93.125 28.22C92.7587 27.4537 92.8412 26.8675 93.3737 26.4662V26.4662Z" fill="url(#paint31_radial_235_72)"/>
<path fill-rule="evenodd" clip-rule="evenodd" d="M95.2737 5.31876L95.3274 3.51751C95.3562 2.78501 95.1562 2.21876 94.7262 1.81876C94.1937 1.45251 93.8237 1.15375 93.6274 0.920005C95.0924 1.6525 95.9912 2.58501 96.3237 3.71751C96.5237 4.42126 96.5774 5.285 96.4749 6.32C96.5087 6.6525 96.8749 7.05251 97.5737 7.52126C98.3737 8.08751 98.8424 8.50251 98.9749 8.77126C99.1399 9.06876 99.2087 9.62126 99.1749 10.4175C99.1399 11.2525 99.2087 11.8675 99.3749 12.2675C99.7749 13.1363 100.025 13.7863 100.127 14.2213C100.356 15.0213 100.356 15.7538 100.127 16.4175C99.8924 17.0875 99.7949 17.6388 99.8237 18.0688C99.8237 18.1713 99.9262 18.7525 100.127 19.8213C100.259 20.4513 100.259 21.2038 100.127 22.0675C99.9899 22.9713 99.9612 23.5513 100.025 23.82C100.092 24.1525 100.459 24.45 101.127 24.7188C101.626 24.9188 101.757 25.105 101.524 25.27C100.694 25.935 99.9412 26.0025 99.2774 25.4713C99.0087 25.2363 98.8774 24.85 98.8774 24.3188C98.9062 23.6538 98.9062 23.1513 98.8774 22.8188C98.8774 22.6875 98.9937 22.1013 99.2237 21.0713C99.3949 20.2363 99.3599 19.6213 99.1262 19.2213C98.4912 18.0538 98.4087 17.0525 98.8774 16.2175C99.4437 15.3188 99.2437 13.9863 98.2762 12.2188C97.8762 11.52 97.7249 10.9 97.8274 10.3688C97.9937 9.90376 98.0562 9.53751 98.0274 9.27001C97.9937 9.00126 97.7737 8.68876 97.3774 8.31751C96.7087 7.81876 96.2399 7.40376 95.9762 7.06751C95.5424 6.56876 95.3074 5.98876 95.2737 5.31876V5.31876Z" fill="url(#paint32_linear_235_72)"/>
<path fill-rule="evenodd" clip-rule="evenodd" d="M87.8274 9.67001C88.0274 9.93876 88.0274 10.3875 87.8274 11.0175C87.4612 12.185 87.2262 13.1175 87.1237 13.82C86.8949 15.4513 86.9437 17.2675 87.2749 19.27C87.4412 20.3 87.6274 21.32 87.8274 22.3213C86.4937 20.4513 85.9274 17.6538 86.1274 13.9175C86.2249 12.4538 86.4599 11.2713 86.8262 10.3688C87.1587 9.43501 87.4899 9.20126 87.8274 9.67001V9.67001Z" fill="url(#paint33_linear_235_72)"/>
<path fill-rule="evenodd" clip-rule="evenodd" d="M96.475 38.7713C97.1437 39.87 97.1775 40.6713 96.5775 41.1688C95.9425 41.7013 95.4587 41.4863 95.1275 40.52C94.8237 39.685 94.8925 39.05 95.3275 38.62C95.7612 38.1513 96.1425 38.2 96.475 38.7713Z" fill="#521617"/>
<path fill-rule="evenodd" clip-rule="evenodd" d="M96.1763 38.3713C96.8113 39.47 96.8263 40.27 96.225 40.7688C95.625 41.3013 95.1412 41.0863 94.775 40.1188C94.4775 39.2838 94.56 38.6538 95.025 38.22C95.4587 37.7513 95.845 37.8 96.1763 38.3713V38.3713Z" fill="url(#paint34_radial_235_72)"/>
<path fill-rule="evenodd" clip-rule="evenodd" d="M51.8261 41.0663C53.1936 41.2663 53.9937 41.52 54.2237 41.8188C54.3949 42.0188 54.3412 42.35 54.0774 42.8188C53.8087 43.22 53.4424 43.5863 52.9737 43.9175C52.7099 44.1525 52.4262 44.3525 52.1237 44.5188C51.9924 44.7525 51.9774 45.4363 52.0749 46.5688L52.4262 52.7163C52.1587 53.0538 51.6061 53.4538 50.7761 53.9175L49.2237 54.67C49.4237 51.77 49.3749 49.0013 49.0774 46.3688C48.9749 45.4025 48.6762 44.7675 48.1737 44.47C47.5099 44.2013 46.9774 43.9525 46.5774 43.7175C45.8737 43.3513 45.5562 42.9713 45.6249 42.57C45.6937 42.0675 46.3574 41.6375 47.6274 41.2713C48.8574 40.9 50.2586 40.8375 51.8261 41.0663V41.0663Z" fill="url(#paint35_linear_235_72)"/>
<path fill-rule="evenodd" clip-rule="evenodd" d="M49.6775 43.1713C47.4412 43.235 45.625 42.2038 44.2237 40.07C42.9937 38.2688 42.4562 36.4863 42.6275 34.7188C42.8275 32.9175 43.4275 31.2525 44.4237 29.7188C45.9912 27.3213 48.1587 26.2038 50.9275 26.3688C52.8562 26.5013 54.4775 27.4675 55.7762 29.27C56.9437 30.935 57.5587 32.805 57.6275 34.87C57.6562 36.935 56.9575 38.7863 55.5275 40.4175C53.9937 42.2188 52.0412 43.1363 49.6775 43.1713V43.1713Z" fill="url(#paint36_radial_235_72)"/>
<path fill-rule="evenodd" clip-rule="evenodd" d="M53.5737 29.7675C54.4437 31.0025 54.9262 32.2525 55.025 33.5175C55.1562 34.9875 54.775 36.3888 53.8775 37.7213C52.8412 39.2838 51.44 40.07 49.6775 40.07C47.8412 40.07 46.3087 39.4013 45.0737 38.0688C43.94 36.8675 43.3737 35.485 43.3737 33.9175C43.345 32.355 43.7937 30.935 44.7262 29.67C45.6937 28.2688 46.9237 27.5025 48.4275 27.37C50.5912 27.17 52.31 27.9713 53.5737 29.7675V29.7675Z" fill="url(#paint37_linear_235_72)"/>
<path fill-rule="evenodd" clip-rule="evenodd" d="M47.3237 28.3175C48.3937 28.3513 48.7599 28.82 48.4274 29.7188C48.1587 30.3875 47.6562 31.0513 46.9237 31.7213C46.3237 32.2525 45.7762 32.5363 45.2737 32.57C44.7124 32.57 44.4437 32.1988 44.4774 31.4663C44.5412 30.7 44.9412 29.9675 45.6737 29.27C46.3087 28.635 46.8599 28.3175 47.3237 28.3175Z" fill="#FCF5ED"/>
<path fill-rule="evenodd" clip-rule="evenodd" d="M49.8237 38.1713C51.0937 37.9713 52.2412 37.2875 53.2762 36.12C53.775 35.5538 54.16 34.9875 54.4237 34.4213L54.2237 35.2213C54.0912 35.8863 53.6912 36.6188 53.0275 37.4188C52.1237 38.4888 51.0737 39.035 49.8775 39.0688C48.7062 39.1375 47.71 38.9175 46.875 38.42L45.9275 37.6675L46.675 38.0688C47.4412 38.3375 48.4912 38.3713 49.8237 38.1713V38.1713Z" fill="#625340"/>
<path fill-rule="evenodd" clip-rule="evenodd" d="M65.7274 44.5675C65.5912 44.1675 65.2924 43.8013 64.8237 43.4688C64.3899 43.2 64.0424 42.8538 63.7749 42.4188C63.5112 41.985 63.4424 41.6675 63.5737 41.4663C63.8087 41.1688 64.5749 40.9 65.8737 40.6713C67.4074 40.4363 68.7749 40.4713 69.9749 40.7688C71.2112 41.1 71.8599 41.5013 71.9237 41.97C71.9574 42.3363 71.6399 42.7163 70.9762 43.1175C70.2437 43.42 69.7412 43.6688 69.4774 43.8688C69.0424 44.2013 68.7749 44.85 68.6762 45.8175C68.4424 48.42 68.4424 51.355 68.6762 54.6213C68.3099 54.45 67.8074 54.1675 67.1774 53.7713C66.6749 53.4688 66.2749 53.1713 65.9762 52.8688L65.6737 52.5213C65.7424 51.95 65.8099 50.4513 65.8737 48.02C65.9087 46.2863 65.8599 45.1338 65.7274 44.5675V44.5675Z" fill="url(#paint38_linear_235_72)"/>
<path fill-rule="evenodd" clip-rule="evenodd" d="M66.4261 26.1688C69.0911 25.935 71.2112 26.97 72.7737 29.27C73.8424 30.8375 74.4436 32.4675 74.5749 34.1675C74.7074 36.0713 74.2437 37.8875 73.1737 39.6213C71.9087 41.6525 70.1899 42.6675 68.0274 42.6675C65.7561 42.6675 63.8574 41.8038 62.3237 40.07C60.9274 38.4688 60.2099 36.6525 60.1761 34.6213C60.1761 32.6188 60.7424 30.7875 61.8749 29.1188C63.0761 27.3213 64.5899 26.335 66.4261 26.1688V26.1688Z" fill="url(#paint39_radial_235_72)"/>
<path fill-rule="evenodd" clip-rule="evenodd" d="M65.6737 26.8675C67.8412 26.7013 69.5412 27.5025 70.7762 29.27C71.6399 30.5 72.1237 31.75 72.2262 33.02C72.3587 34.485 71.9774 35.8863 71.0737 37.2188C70.0737 38.7863 68.6912 39.5675 66.9237 39.5675C65.0924 39.5675 63.5599 38.9038 62.3237 37.57C61.1912 36.3688 60.6099 34.9875 60.5762 33.42C60.5762 31.8525 61.0249 30.4363 61.9237 29.1675C62.9249 27.77 64.1749 27.0038 65.6737 26.8675Z" fill="url(#paint40_linear_235_72)"/>
<path fill-rule="evenodd" clip-rule="evenodd" d="M64.5261 27.8688C65.5911 27.9025 65.9762 28.3513 65.6737 29.2213C65.4049 29.9188 64.9074 30.5875 64.1749 31.2175C63.5399 31.75 62.9736 32.0338 62.4749 32.0675C61.9086 32.1013 61.6549 31.735 61.7237 30.9688C61.7574 30.2363 62.1436 29.5188 62.8761 28.82C63.5449 28.185 64.0911 27.8688 64.5261 27.8688Z" fill="#FCF5ED"/>
<path fill-rule="evenodd" clip-rule="evenodd" d="M63.9262 37.57C64.6925 37.8338 65.7275 37.8688 67.0262 37.6675C68.2912 37.4675 69.4437 36.7838 70.4737 35.6175C71.0112 35.0513 71.4062 34.485 71.675 33.9175L71.475 34.7188C71.3087 35.4513 70.9087 36.1838 70.2737 36.9213C69.375 37.985 68.31 38.5513 67.075 38.62C65.9087 38.6538 64.9075 38.42 64.0775 37.9175L63.1737 37.17L63.9262 37.57V37.57Z" fill="#625340"/>
<path fill-rule="evenodd" clip-rule="evenodd" d="M23.8425 100.139C23.775 100.208 23.7062 100.261 23.6225 100.3C23.31 100.495 23.0612 100.769 22.8762 101.125C22.5825 101.725 22.4125 102.224 22.3587 102.624C21.86 102.038 21.64 101.32 21.7087 100.456C21.7387 99.9775 21.9087 99.5338 22.2125 99.1275C22.2312 99.0988 22.2462 99.0738 22.2612 99.045C22.7837 98.425 23.3987 98.3025 24.1112 98.6638L23.8912 100.056C23.8775 100.085 23.8625 100.114 23.8425 100.139Z" fill="url(#paint41_linear_235_72)"/>
<path fill-rule="evenodd" clip-rule="evenodd" d="M30.2537 96.31C29.99 96.4863 29.4287 96.8863 28.56 97.5163C27.6312 98.1175 26.7087 98.63 25.7862 99.05L25.195 99.275C24.385 99.455 23.8625 99.235 23.6325 98.62C23.55 98.4 23.5837 98.1613 23.735 97.9025C23.8475 97.6625 24.0575 97.395 24.375 97.0963C24.9462 96.555 25.9812 95.8025 27.475 94.8363C28.6037 94.1088 29.6137 93.6888 30.5025 93.5813C30.9475 93.4938 31.2937 93.4838 31.5525 93.5663L31.5962 93.5863C31.7387 93.7563 31.8412 94.0063 31.9137 94.3325C32.1387 95.1238 32.1337 95.705 31.895 96.0713C31.7875 96.0613 31.67 96.0425 31.5337 96.0175C30.9962 95.9938 30.5712 96.0913 30.2537 96.31ZM26.7975 96.335C27.2262 96.2763 27.9537 95.9488 28.9887 95.3588C30.0975 94.7675 30.5325 94.3625 30.3025 94.1475C29.995 93.8638 29.4187 93.9663 28.5737 94.46C28.0812 94.7475 27.5925 95.1438 27.105 95.6563C26.5775 96.1788 26.475 96.4088 26.7975 96.335Z" fill="url(#paint42_linear_235_72)"/>
<path fill-rule="evenodd" clip-rule="evenodd" d="M26.7974 96.335C26.4749 96.4088 26.5774 96.1788 27.1049 95.6563C27.5924 95.1438 28.0812 94.7475 28.5737 94.46C29.4187 93.9663 29.9949 93.8638 30.3024 94.1475C30.5324 94.3625 30.0974 94.7675 28.9887 95.3588C27.9537 95.9488 27.2262 96.2763 26.7974 96.335Z" fill="#FBDFA6"/>
<path fill-rule="evenodd" clip-rule="evenodd" d="M42.6461 88.8888C42.7299 89.05 42.8124 89.225 42.8999 89.4163C43.2074 90.1188 43.3149 90.7975 43.2174 91.4425C43.0911 91.52 42.9636 91.5888 42.8324 91.6325L32.0461 95.5825C32.0649 95.1488 31.7774 94.6413 31.1811 94.0688C30.9574 93.825 30.7374 93.6638 30.5274 93.5813L30.4786 93.5913L30.1761 93.5713L32.0461 92.2675C33.0224 91.6625 34.0874 91.1 35.2349 90.5738C35.4686 90.5825 36.6161 90.315 38.6674 89.7625C38.8274 89.7188 39.0236 89.67 39.2574 89.6263C38.3636 90.0025 38.0661 90.1925 38.3599 90.1975C39.3211 90.095 40.0386 89.9188 40.5174 89.67C40.8986 89.46 40.9524 89.3375 40.6786 89.2988C41.2249 89.1725 41.8799 89.035 42.6461 88.8888V88.8888Z" fill="url(#paint43_linear_235_72)"/>
<path fill-rule="evenodd" clip-rule="evenodd" d="M40.6787 89.2988C40.9525 89.3375 40.8987 89.46 40.5175 89.67C40.0387 89.9188 39.3212 90.095 38.36 90.1975C38.0662 90.1925 38.3637 90.0025 39.2575 89.6263C39.2675 89.6113 39.2825 89.6013 39.3012 89.5963L39.4037 89.5825C39.9175 89.3625 40.3225 89.27 40.63 89.3038L40.6787 89.2988V89.2988Z" fill="#FFE8E0"/>
<path fill-rule="evenodd" clip-rule="evenodd" d="M43.2175 91.4425C43.315 90.7975 43.2075 90.1188 42.9 89.4163C42.8125 89.225 42.73 89.05 42.6462 88.8888L43.3787 88.7125C43.97 88.5813 44.4037 88.435 44.6925 88.2738C45.2 88.02 45.5375 87.8825 45.7025 87.8638L45.815 88.005C45.86 88.0975 45.9087 88.23 45.9575 88.3913C46.0112 88.5513 46.045 88.7175 46.06 88.8838C46.06 89.1813 45.9912 89.5088 45.8637 89.86C45.4787 90.6713 44.8 91.2275 43.8275 91.53L43.15 91.75C43.1687 91.6475 43.1937 91.545 43.2175 91.4425V91.4425Z" fill="url(#paint44_linear_235_72)"/>
<path fill-rule="evenodd" clip-rule="evenodd" d="M28.725 98.5025C28.75 98.7325 28.745 99.0988 28.7062 99.5913C28.7012 100.075 28.8375 100.588 29.1212 101.135C29.6287 101.994 30.0737 102.634 30.4637 103.049C29.4775 103.108 28.53 102.721 27.6225 101.896C26.9625 101.248 26.5187 100.423 26.2787 99.4163C26.1725 98.9325 26.1475 98.5475 26.2012 98.2488C26.685 97.3163 27.2212 97.1113 27.8175 97.6338C28.4087 98.1513 28.7112 98.44 28.725 98.5025Z" fill="url(#paint45_linear_235_72)"/>
<path fill-rule="evenodd" clip-rule="evenodd" d="M22.2562 83.625L22.6025 83.5125C22.9975 83.4975 23.4662 83.635 23.9987 83.9275C24.8187 84.3288 25.435 84.7625 25.85 85.2313L25.7525 85.4363C25.5425 86.1688 25.5375 86.8475 25.7375 87.4675C25.8987 87.98 26.27 89.04 26.8462 90.6463C27.4125 92.35 27.8225 94.0113 28.0762 95.6275C28.2175 96.335 28.2225 96.9113 28.0962 97.365C28.0225 97.5513 27.93 97.7313 27.8075 97.9025C27.5287 98.195 27.1675 98.3175 26.7287 98.2738C26.3912 98.2 26.06 97.9663 25.7325 97.57C25.43 97.2038 25.1175 96.7113 24.795 96.0863C24.2137 94.9288 23.4662 92.975 22.5537 90.2125C21.885 88.1313 21.6312 86.4088 21.7925 85.0363C21.875 84.3475 22.0262 83.8788 22.2562 83.625V83.625ZM22.4312 88.415C22.7 89.3038 23.105 90.27 23.6475 91.315C24.2437 92.375 24.5412 92.6775 24.5462 92.2238C24.6 91.56 24.39 90.295 23.9162 88.435C23.4037 86.4625 22.9537 85.5738 22.5587 85.7688C22.0562 86.0375 22.0162 86.9213 22.4312 88.415Z" fill="url(#paint46_linear_235_72)"/>
<path fill-rule="evenodd" clip-rule="evenodd" d="M22.4313 88.415C22.0163 86.9213 22.0563 86.0375 22.5588 85.7688C22.9538 85.5738 23.4038 86.4625 23.9163 88.435C24.39 90.295 24.6 91.56 24.5462 92.2238C24.5412 92.6775 24.2438 92.375 23.6475 91.315C23.105 90.27 22.7 89.3038 22.4313 88.415V88.415Z" fill="#FBDFA6"/>
<path fill-rule="evenodd" clip-rule="evenodd" d="M43.2712 81.6575L43.6762 82.1013C43.9937 82.57 44.1649 83.1563 44.1899 83.86C44.2287 85.07 43.8774 86.2038 43.1249 87.2625L43.2761 87.2775C42.9686 87.3163 42.6462 87.3463 42.3099 87.38C39.7262 87.4388 37.5099 87.5025 35.6637 87.575C32.8124 87.61 30.8349 87.6338 29.7262 87.6488L24.4087 87.6388C24.4974 87.4138 24.5599 87.15 24.5899 86.8525C24.5849 86.2863 24.4037 85.6125 24.0524 84.8363C23.8374 84.3138 23.5787 83.9325 23.2662 83.6988L22.8374 83.5025C23.6424 83.1563 24.8049 82.81 26.3137 82.4675C28.8137 81.8963 31.4937 81.56 34.3499 81.4625C34.8874 81.4525 35.4437 81.4425 36.0112 81.4375C38.7599 81.4275 41.1762 81.5013 43.2712 81.6575V81.6575ZM36.6362 82.6588C36.9574 82.79 37.4462 82.9125 38.1049 83.015C38.8962 83.1313 39.5599 83.1513 40.1074 83.0788C40.7561 82.9463 40.8937 82.775 40.5124 82.565C40.1362 82.3263 39.4237 82.2338 38.3837 82.2925C36.7337 82.385 36.1474 82.5063 36.6362 82.6588V82.6588Z" fill="url(#paint47_linear_235_72)"/>
<path fill-rule="evenodd" clip-rule="evenodd" d="M36.6362 82.6588C36.1474 82.5063 36.7337 82.385 38.3837 82.2925C39.4237 82.2338 40.1362 82.3263 40.5124 82.565C40.8937 82.775 40.7561 82.9463 40.1074 83.0788C39.5599 83.1513 38.8961 83.1313 38.1049 83.015C37.4461 82.9125 36.9574 82.79 36.6362 82.6588V82.6588Z" fill="#FFE8E0"/>
<path fill-rule="evenodd" clip-rule="evenodd" d="M43.2762 87.2775L43.125 87.2625C43.8775 86.2038 44.2288 85.07 44.19 83.86C44.165 83.1563 43.9938 82.57 43.6763 82.1013L43.2713 81.6575L43.2275 81.5988L44.98 81.6375C46.275 81.74 47.265 82.0138 47.9537 82.4538C48.3637 82.7313 48.5837 83.1563 48.6225 83.7275C48.6475 83.83 48.6525 83.9525 48.6375 84.0838C48.5937 84.8113 48.2912 85.4363 47.735 85.9438C47.29 86.3638 46.7925 86.6475 46.24 86.7888C45.5963 86.8913 45.0975 86.97 44.7563 87.0338L43.2762 87.2775V87.2775Z" fill="url(#paint48_linear_235_72)"/>
<path fill-rule="evenodd" clip-rule="evenodd" d="M3.42745 97.2188L4.6587 97.6675C4.76995 97.8438 4.89745 98.1413 5.0437 98.5663C5.19495 98.9863 5.19995 99.3325 5.0737 99.6063C4.9412 99.875 4.8437 100.046 4.78495 100.129C4.57995 100.431 4.17995 100.876 3.5937 101.466C3.04745 102.111 2.6612 102.888 2.4312 103.786C2.05995 105.213 1.86995 106.32 1.85495 107.111C1.56245 106.95 1.27495 106.676 0.991195 106.296C0.409945 105.559 0.0824454 104.636 0.00994538 103.533C-0.0638046 102.283 0.317445 100.935 1.14745 99.4938C1.4162 99.0113 1.6987 98.5963 2.00245 98.2538L3.42745 97.2188Z" fill="url(#paint49_linear_235_72)"/>
<path fill-rule="evenodd" clip-rule="evenodd" d="M22.6274 84.5525C22.5774 85.9488 22.2024 86.9063 21.5137 87.4238L21.7674 87.575C20.9911 87.8488 20.3661 88.1563 19.8974 88.4938C19.5649 88.7225 18.5062 89.7388 16.7136 91.53C14.9799 93.2875 13.1536 94.8113 11.2299 96.11C9.73115 97.15 8.28615 97.8588 6.90365 98.2388C6.5724 98.3513 6.2749 98.425 6.0199 98.4688C5.1899 98.5613 4.6974 98.42 4.52615 98.0538C4.3849 97.775 4.31615 97.4625 4.32615 97.1213C4.42365 95.3238 6.53365 92.37 10.6636 88.2488C13.1586 85.7875 15.4636 84.0788 17.5687 83.1275C19.5849 82.1938 21.1811 82.0375 22.3586 82.6588L22.4899 82.7313C22.3287 82.6775 22.1824 82.6288 22.0512 82.59L22.3774 83.015C22.5874 83.4488 22.6711 83.9575 22.6274 84.5525ZM11.6399 89.6363C10.5174 91.2075 10.3374 91.8775 11.0986 91.6325C12.1336 91.315 13.8574 90.1925 16.2699 88.2638C18.8724 86.2075 19.8536 84.9388 19.2186 84.445C18.8524 84.1525 18.3099 84.1225 17.5924 84.3575C16.7574 84.5963 15.8737 85.1138 14.9362 85.915C13.8137 86.9063 12.7149 88.1463 11.6399 89.6363V89.6363Z" fill="url(#paint50_linear_235_72)"/>
<path fill-rule="evenodd" clip-rule="evenodd" d="M11.6399 89.6363C12.7149 88.1463 13.8136 86.9063 14.9361 85.915C15.8736 85.1138 16.7574 84.5963 17.5924 84.3575C18.3099 84.1225 18.8524 84.1525 19.2186 84.445C19.8536 84.9388 18.8724 86.2075 16.2699 88.2638C13.8574 90.1925 12.1336 91.315 11.0986 91.6325C10.3374 91.8775 10.5174 91.2075 11.6399 89.6363V89.6363Z" fill="#FBDFA6"/>
<path fill-rule="evenodd" clip-rule="evenodd" d="M44.4137 77.385L44.4725 77.4238C44.795 77.8338 45.025 78.43 45.1562 79.2213C45.3613 80.5388 45.1613 81.7013 44.5563 82.7125C44.17 82.8238 43.75 82.9313 43.2963 83.025C40 83.5425 37.2162 83.9713 34.9412 84.3088C31.7137 84.8113 29.4388 85.1488 28.115 85.3238L21.7675 86.4425C21.9287 85.5925 21.5625 84.6313 20.6538 83.5613C20.2875 83.0975 19.8775 82.77 19.4337 82.595L18.9062 82.4975C19.0287 82.4388 19.17 82.375 19.3263 82.3113C20.1563 81.8963 21.3375 81.4475 22.8662 80.9588C26.3375 79.8263 30.1763 78.9763 34.375 78.405C38.2175 77.9125 41.5625 77.57 44.4137 77.385V77.385ZM37.2263 79.5963C38.2025 79.5625 39.0137 79.465 39.6587 79.2938C40.43 79.0688 40.5613 78.8888 40.0588 78.7525C39.5163 78.5963 38.6375 78.625 37.4225 78.845C35.3812 79.1675 34.7125 79.3725 35.41 79.465C35.835 79.5475 36.44 79.5913 37.2263 79.5963V79.5963Z" fill="url(#paint51_linear_235_72)"/>
<path fill-rule="evenodd" clip-rule="evenodd" d="M37.2262 79.5963C36.4399 79.5913 35.8349 79.5475 35.4099 79.465C34.7124 79.3725 35.3812 79.1675 37.4224 78.845C38.6374 78.625 39.5162 78.5963 40.0587 78.7525C40.5612 78.8838 40.4299 79.065 39.6587 79.2938C39.0137 79.465 38.2024 79.5625 37.2262 79.5963V79.5963Z" fill="#FFE8E0"/>
<path fill-rule="evenodd" clip-rule="evenodd" d="M44.5561 82.7125C45.1611 81.7013 45.3611 80.5388 45.1561 79.2213C45.0249 78.43 44.7949 77.8338 44.4724 77.4238L44.4136 77.385L43.9886 77.0675L45.8299 76.8325C47.2074 76.75 48.2961 76.9163 49.0961 77.3263C49.6974 77.61 50.0149 78.1563 50.0486 78.9663C50.0874 79.6363 49.9361 80.2313 49.6049 80.7438C49.4924 80.8663 49.3849 80.9938 49.2724 81.115C48.4424 82.0375 47.2261 82.5463 45.6149 82.6438L44.5561 82.7125V82.7125Z" fill="url(#paint52_linear_235_72)"/>
<path fill-rule="evenodd" clip-rule="evenodd" d="M85.9762 99.87C85.9962 99.9625 86.025 100.046 86.0737 100.119C86.245 100.451 86.3087 100.818 86.275 101.218C86.2112 101.886 86.0937 102.404 85.9275 102.77C86.66 102.536 87.2262 102.038 87.6275 101.271C87.8512 100.841 87.9437 100.373 87.9 99.87V99.7675C87.7837 98.9663 87.3237 98.5375 86.5237 98.4688L85.9762 99.7675C85.9712 99.8013 85.9712 99.8363 85.9762 99.87Z" fill="url(#paint53_linear_235_72)"/>
<path fill-rule="evenodd" clip-rule="evenodd" d="M86.1762 91.8288C86.1475 92.1413 86.06 92.8288 85.9125 93.8888C85.82 94.9925 85.8062 96.0475 85.8637 97.0575L85.9475 97.6875C86.1675 98.4888 86.6062 98.845 87.2612 98.7613C87.49 98.7275 87.685 98.5863 87.8412 98.3275C88.0025 98.1175 88.14 97.805 88.2525 97.385C88.4625 96.6225 88.6375 95.3588 88.7887 93.5863C88.8962 92.2438 88.7937 91.1588 88.4712 90.3238C88.34 89.89 88.1837 89.5775 87.9937 89.3913L87.9537 89.3575C87.735 89.3188 87.4662 89.3375 87.1437 89.4313C86.3375 89.6063 85.83 89.885 85.62 90.2663C85.6787 90.3538 85.7525 90.4513 85.835 90.5588C86.1087 91.0225 86.2212 91.4425 86.1762 91.8288V91.8288ZM87.7837 94.89C87.6362 94.48 87.5825 93.6838 87.6175 92.4975C87.6175 91.2375 87.7687 90.6613 88.0662 90.7638C88.4625 90.905 88.6425 91.4625 88.6037 92.4388C88.5837 93.01 88.4625 93.63 88.2425 94.2988C88.0275 95.0113 87.8762 95.2075 87.7837 94.89Z" fill="url(#paint54_linear_235_72)"/>
<path fill-rule="evenodd" clip-rule="evenodd" d="M87.7837 94.89C87.8762 95.2075 88.0275 95.0113 88.2425 94.2988C88.4625 93.63 88.5837 93.01 88.6037 92.4388C88.6425 91.4625 88.4625 90.905 88.0662 90.7638C87.7687 90.6613 87.6175 91.2375 87.6175 92.4975C87.5825 93.6838 87.6362 94.48 87.7837 94.89Z" fill="#FBDFA6"/>
<path fill-rule="evenodd" clip-rule="evenodd" d="M74.38 87.8925C74.3413 88.0688 74.3013 88.2588 74.2625 88.4688C74.14 89.225 74.2088 89.9088 74.4675 90.51C74.61 90.5538 74.7512 90.5825 74.8825 90.5975L86.3138 91.7163C86.1863 91.2963 86.3375 90.735 86.7725 90.0313C86.9288 89.7388 87.1 89.5288 87.28 89.3963L87.3288 89.3913L87.6225 89.2988L85.4838 88.5075C84.385 88.1663 83.2175 87.8825 81.9725 87.6675C81.7475 87.7363 80.5713 87.7613 78.4475 87.7413C78.2813 87.7363 78.0813 87.7413 77.8413 87.7563C78.8038 87.8975 79.14 88.01 78.8525 88.0825C77.9 88.225 77.1587 88.235 76.6362 88.1125C76.2162 88.005 76.1325 87.9025 76.3863 87.795C75.825 87.81 75.1563 87.8438 74.38 87.8925V87.8925Z" fill="url(#paint55_linear_235_72)"/>
<path fill-rule="evenodd" clip-rule="evenodd" d="M76.3862 87.795C76.1324 87.9025 76.2162 88.01 76.6362 88.1125C77.1587 88.235 77.8949 88.225 78.8524 88.0825C79.1399 88.01 78.8037 87.8975 77.8412 87.7563C77.8274 87.7463 77.8124 87.7413 77.7924 87.7363L77.6899 87.7513C77.1387 87.6675 76.7187 87.6775 76.4349 87.79L76.3862 87.795V87.795Z" fill="#FFE8E0"/>
<path fill-rule="evenodd" clip-rule="evenodd" d="M74.4675 90.51C74.2087 89.9088 74.14 89.225 74.2625 88.4688C74.2975 88.2588 74.3362 88.0688 74.38 87.8925L73.6225 87.9075C73.0225 87.9313 72.5637 87.8975 72.2462 87.81C71.69 87.6925 71.3275 87.6438 71.1625 87.6675L71.0887 87.8338C71.0687 87.9363 71.055 88.0738 71.05 88.2438C71.04 88.41 71.05 88.5763 71.0737 88.7425C71.1475 89.035 71.2937 89.3325 71.5087 89.6363C72.085 90.3238 72.8812 90.695 73.8962 90.7438L74.61 90.7875C74.565 90.695 74.5162 90.6025 74.4675 90.51Z" fill="url(#paint56_linear_235_72)"/>
<path fill-rule="evenodd" clip-rule="evenodd" d="M96.5574 96.745C96.4799 96.97 96.4111 97.3213 96.3474 97.815C96.2549 98.2875 96.0149 98.7563 95.6249 99.23C94.9511 99.9675 94.3849 100.495 93.9211 100.818C94.8686 101.076 95.8686 100.9 96.9286 100.285C97.7049 99.7925 98.3099 99.0738 98.7499 98.1463C98.9549 97.6975 99.0624 97.3263 99.0724 97.0238C98.7936 96.0125 98.3099 95.705 97.6224 96.0863C96.9386 96.4713 96.5874 96.6913 96.5574 96.745V96.745Z" fill="url(#paint57_linear_235_72)"/>
<path fill-rule="evenodd" clip-rule="evenodd" d="M95.6637 83.5325L95.3074 83.61C94.9562 83.7963 94.6287 84.1425 94.3212 84.65C93.8237 85.3875 93.5199 86.0563 93.4037 86.6525L93.5937 86.775C94.1499 87.2825 94.5024 87.8438 94.6537 88.4588C94.7749 88.9663 95.0049 90.0363 95.3374 91.6625C95.7274 93.3663 96.2299 94.9538 96.8412 96.4275C97.0849 97.0875 97.3774 97.57 97.7199 97.8875C97.8762 98.005 98.0474 98.1075 98.2424 98.195C98.6324 98.2975 99.0087 98.225 99.3599 97.9713C99.6137 97.7413 99.7749 97.38 99.8487 96.8913C99.9224 96.4325 99.9362 95.8663 99.8924 95.1875C99.7949 93.9375 99.4287 91.9313 98.7937 89.1763C98.2962 87.1113 97.6274 85.5438 96.7824 84.48C96.3624 83.9475 95.9862 83.635 95.6637 83.5325V83.5325ZM97.9737 87.6188C98.1987 88.4888 98.3499 89.4988 98.4224 90.6413C98.4574 91.8188 98.3549 92.2188 98.1199 91.8425C97.7299 91.31 97.2612 90.1538 96.7087 88.3663C96.1324 86.4713 96.0649 85.505 96.4987 85.4713C97.0699 85.4463 97.5587 86.1638 97.9737 87.6188V87.6188Z" fill="url(#paint58_linear_235_72)"/>
<path fill-rule="evenodd" clip-rule="evenodd" d="M97.9737 87.6188C97.5587 86.1638 97.0699 85.4463 96.4987 85.4713C96.0649 85.505 96.1324 86.4713 96.7087 88.3663C97.2612 90.1538 97.7299 91.31 98.1199 91.8425C98.3549 92.2188 98.4574 91.8188 98.4224 90.6413C98.3499 89.4988 98.1987 88.4888 97.9737 87.6188V87.6188Z" fill="#FBDFA6"/>
<path fill-rule="evenodd" clip-rule="evenodd" d="M75.81 81.6863L75.41 82.1363C75.0925 82.605 74.9225 83.19 74.9025 83.8988C74.8637 85.105 75.225 86.2375 75.9762 87.2925L75.825 87.3113C76.1325 87.3463 76.455 87.375 76.7925 87.4038C79.375 87.4575 81.5912 87.5163 83.4375 87.58C86.2837 87.6 88.2612 87.6188 89.37 87.6338L94.6875 87.6C94.595 87.375 94.5312 87.1163 94.5025 86.8188C94.5062 86.2475 94.6825 85.5788 95.0337 84.8013C95.2437 84.275 95.5025 83.8938 95.81 83.6588L96.24 83.4638C95.435 83.1175 94.2725 82.775 92.7637 82.4388C90.2587 81.8775 87.5775 81.55 84.7262 81.4625C84.19 81.4575 83.6375 81.4525 83.0662 81.4475C80.3225 81.4475 77.905 81.525 75.81 81.6863V81.6863ZM82.4462 82.6675C82.1287 82.805 81.64 82.9225 80.9812 83.0288C80.19 83.1513 79.5212 83.1713 78.98 83.0975C78.33 82.9713 78.1937 82.8 78.5737 82.59C78.945 82.35 79.6587 82.2525 80.6987 82.3063C82.3487 82.395 82.935 82.5163 82.4462 82.6675V82.6675Z" fill="url(#paint59_linear_235_72)"/>
<path fill-rule="evenodd" clip-rule="evenodd" d="M82.4462 82.6675C82.9349 82.5163 82.3487 82.395 80.6987 82.3063C79.6587 82.2525 78.9449 82.35 78.5737 82.59C78.1937 82.8 78.3299 82.9713 78.9799 83.0975C79.5212 83.1713 80.1899 83.1513 80.9812 83.0288C81.6399 82.9225 82.1287 82.805 82.4462 82.6675V82.6675Z" fill="#FFE8E0"/>
<path fill-rule="evenodd" clip-rule="evenodd" d="M75.8249 87.3113L75.9762 87.2925C75.2249 86.2375 74.8637 85.105 74.9024 83.8988C74.9224 83.19 75.0924 82.605 75.4099 82.1363L75.8099 81.6863L75.8549 81.6325L74.1062 81.6763C72.8124 81.7838 71.8212 82.0575 71.1324 82.5025C70.7274 82.78 70.5074 83.21 70.4687 83.7813C70.4487 83.8838 70.4437 84.0013 70.4587 84.1325C70.5024 84.865 70.8062 85.485 71.3624 85.9938C71.8112 86.4125 72.3149 86.6913 72.8612 86.8325C73.5112 86.9313 74.0037 87.0088 74.3462 87.0725L75.8249 87.3113Z" fill="url(#paint60_linear_235_72)"/>
<path fill-rule="evenodd" clip-rule="evenodd" d="M100.317 97.56L99.0624 97.17C98.8724 97.2438 98.5837 97.4 98.2124 97.6488C97.8374 97.8925 97.6174 98.1663 97.5587 98.4588C97.4999 98.7525 97.4712 98.9475 97.4712 99.05C97.4512 99.4163 97.4949 100.011 97.6074 100.838C97.6512 101.681 97.4849 102.531 97.1237 103.386C96.5524 104.748 96.0299 105.744 95.5662 106.384C95.8937 106.433 96.2887 106.389 96.7437 106.256C97.6562 106.023 98.4762 105.49 99.2037 104.655C100.02 103.704 100.532 102.4 100.747 100.749C100.83 100.203 100.855 99.6988 100.82 99.25L100.317 97.56V97.56Z" fill="url(#paint61_linear_235_72)"/>
<path fill-rule="evenodd" clip-rule="evenodd" d="M97.5687 76.3888C96.5574 77.35 96.0887 78.2588 96.1574 79.1225L95.8737 79.03C96.1812 79.7925 96.3674 80.4613 96.4212 81.0425C96.4649 81.4375 96.4112 82.9025 96.2499 85.4363C96.0787 87.8925 96.1424 90.27 96.4399 92.565C96.6549 94.3813 97.0749 95.93 97.6999 97.2188C97.8412 97.5413 97.9787 97.815 98.1149 98.0338C98.5937 98.7125 99.0287 98.9913 99.4137 98.8738C99.7162 98.8013 99.9949 98.645 100.244 98.415C101.529 97.155 102.349 93.615 102.705 87.8C102.9 84.2988 102.661 81.4475 101.982 79.235C101.347 77.1113 100.41 75.8075 99.1699 75.3338L99.0287 75.29C99.1749 75.3725 99.3062 75.4513 99.4237 75.525L98.8862 75.5588C98.4274 75.685 97.9887 75.9638 97.5687 76.3888V76.3888ZM101.02 87.985C100.586 89.865 100.205 90.4413 99.8824 89.7088C99.4387 88.7225 99.1399 86.6913 98.9887 83.605C98.8087 80.3 99.1162 78.7225 99.9024 78.8738C100.366 78.9525 100.747 79.3375 101.045 80.0313C101.416 80.8175 101.611 81.8238 101.631 83.0488C101.636 84.5525 101.431 86.1938 101.02 87.985V87.985Z" fill="url(#paint62_linear_235_72)"/>
<path fill-rule="evenodd" clip-rule="evenodd" d="M101.02 87.985C101.431 86.1938 101.636 84.5525 101.631 83.0488C101.611 81.8238 101.416 80.8175 101.045 80.0313C100.747 79.3425 100.366 78.9575 99.9025 78.8738C99.1162 78.7225 98.8087 80.3 98.9887 83.605C99.14 86.6913 99.4387 88.7225 99.8825 89.7088C100.205 90.4413 100.586 89.865 101.02 87.985V87.985Z" fill="#FBDFA6"/>
<path fill-rule="evenodd" clip-rule="evenodd" d="M73.555 76.13L73.5062 76.1788C73.2862 76.6525 73.1987 77.2875 73.2475 78.0825C73.335 79.4163 73.775 80.51 74.57 81.36C74.9612 81.3888 75.3862 81.3988 75.84 81.3888C79.0825 81.1638 81.8262 80.9638 84.0625 80.7925C87.2412 80.5688 89.4775 80.3975 90.7762 80.275L97.0562 79.9625C96.7187 79.1725 96.86 78.1513 97.49 76.9063C97.7387 76.3688 98.0562 75.9638 98.4425 75.69L98.9262 75.48C98.7987 75.4513 98.6525 75.4225 98.4862 75.3875C97.6075 75.1725 96.3862 74.9925 94.8237 74.855C91.2787 74.5188 87.4412 74.5338 83.325 74.9088C79.565 75.275 76.3037 75.6813 73.555 76.13V76.13ZM80.8737 76.7013C79.9312 76.8813 79.14 76.965 78.4862 76.94C77.71 76.8913 77.5437 76.745 77.9937 76.5013C78.4762 76.2275 79.3162 76.0613 80.5175 76.0075C82.5287 75.8713 83.2125 75.925 82.5687 76.1688C82.1825 76.345 81.6162 76.52 80.8737 76.7013V76.7013Z" fill="url(#paint63_linear_235_72)"/>
<path fill-rule="evenodd" clip-rule="evenodd" d="M80.8737 76.7013C81.6162 76.52 82.1825 76.345 82.5687 76.1688C83.2125 75.925 82.5287 75.8713 80.5175 76.0075C79.3162 76.0613 78.4762 76.2275 77.9937 76.5013C77.5437 76.74 77.71 76.8913 78.4862 76.94C79.14 76.965 79.9312 76.8813 80.8737 76.7013V76.7013Z" fill="#FFE8E0"/>
<path fill-rule="evenodd" clip-rule="evenodd" d="M74.5699 81.36C73.7749 80.51 73.3349 79.4163 73.2474 78.0825C73.1987 77.2875 73.2862 76.6525 73.5062 76.1788L73.5549 76.13L73.8862 75.725L72.0849 75.905C70.7562 76.13 69.7612 76.53 69.0874 77.1063C68.5737 77.5163 68.3887 78.1225 68.5349 78.9175C68.6424 79.5825 68.9162 80.1288 69.3412 80.5538C69.4724 80.6513 69.6049 80.7488 69.7362 80.8463C70.7274 81.56 71.9974 81.7888 73.5499 81.53L74.5699 81.36V81.36Z" fill="url(#paint64_linear_235_72)"/>
<ellipse cx="50" cy="35" rx="8" ry="9" fill="#7B3224"/>
<ellipse cx="68" cy="34" rx="8" ry="9" fill="#7B3224"/>
<path d="M58 35C58 37.7614 53.866 36 50 36C46.134 36 42 37.7614 42 35C42 32.2386 46.134 29 50 29C53.866 29 58 32.2386 58 35Z" fill="#F3E5D3"/>
<path d="M76 35C76 37.7614 71.866 36 68 36C64.134 36 60 37.7614 60 35C60 32.2386 64.134 29 68 29C71.866 29 76 32.2386 76 35Z" fill="#F3E5D3"/>
<circle cx="63.5" cy="33.5" r="2.5" fill="#655642"/>
<circle cx="54.5" cy="33.5" r="2.5" fill="#665743"/>
<circle cx="55" cy="33" r="1" fill="#FCF5ED"/>
<circle cx="63" cy="33" r="1" fill="#FCF5ED"/>
</g>
<defs>
<linearGradient id="paint0_linear_235_72" x1="38.8306" y1="55.1351" x2="79.0729" y2="90.2349" gradientUnits="userSpaceOnUse">
<stop stop-color="#B85C37"/>
<stop offset="1" stop-color="#3B0610"/>
</linearGradient>
<linearGradient id="paint1_linear_235_72" x1="39.0963" y1="55.9337" x2="79.0318" y2="90.7759" gradientUnits="userSpaceOnUse">
<stop stop-color="#80381B"/>
<stop offset="1" stop-color="#3B0610"/>
</linearGradient>
<linearGradient id="paint2_linear_235_72" x1="48.4948" y1="52.0996" x2="68.0091" y2="91.7558" gradientUnits="userSpaceOnUse">
<stop stop-color="#B85C37"/>
<stop offset="1" stop-color="#3B0610"/>
</linearGradient>
<linearGradient id="paint3_linear_235_72" x1="72.5539" y1="52.731" x2="64.5914" y2="52.007" gradientUnits="userSpaceOnUse">
<stop stop-color="#B85C37"/>
<stop offset="1" stop-color="#3B0610"/>
</linearGradient>
<linearGradient id="paint4_linear_235_72" x1="52.0237" y1="53.896" x2="48.7981" y2="51.5304" gradientUnits="userSpaceOnUse">
<stop stop-color="#B85C37"/>
<stop offset="1" stop-color="#3B0610"/>
</linearGradient>
<linearGradient id="paint5_linear_235_72" x1="37.5996" y1="66.8592" x2="35.6788" y2="63.3504" gradientUnits="userSpaceOnUse">
<stop stop-color="#B85C37"/>
<stop offset="1" stop-color="#3B0610"/>
</linearGradient>
<linearGradient id="paint6_linear_235_72" x1="84.6131" y1="69.8316" x2="79.2587" y2="63.8876" gradientUnits="userSpaceOnUse">
<stop stop-color="#B85C37"/>
<stop offset="1" stop-color="#3B0610"/>
</linearGradient>
<linearGradient id="paint7_linear_235_72" x1="43.0744" y1="66.1551" x2="75.4706" y2="94.4276" gradientUnits="userSpaceOnUse">
<stop stop-color="#F5D689"/>
<stop offset="1" stop-color="#B89448"/>
</linearGradient>
<linearGradient id="paint8_linear_235_72" x1="52.5377" y1="80.7624" x2="67.0755" y2="92.0416" gradientUnits="userSpaceOnUse">
<stop stop-color="#F5D689"/>
<stop offset="1" stop-color="#B89448"/>
</linearGradient>
<linearGradient id="paint9_linear_235_72" x1="49.4284" y1="76.6762" x2="67.1684" y2="94.2912" gradientUnits="userSpaceOnUse">
<stop stop-color="#F5D689"/>
<stop offset="1" stop-color="#B89448"/>
</linearGradient>
<linearGradient id="paint10_linear_235_72" x1="61.4369" y1="69.4244" x2="70.2548" y2="92.4966" gradientUnits="userSpaceOnUse">
<stop stop-color="#CFB061"/>
<stop offset="1" stop-color="#A68541"/>
</linearGradient>
<linearGradient id="paint11_linear_235_72" x1="51.3906" y1="72.8087" x2="54.5647" y2="94.3754" gradientUnits="userSpaceOnUse">
<stop stop-color="#F5D689"/>
<stop offset="1" stop-color="#B89448"/>
</linearGradient>
<linearGradient id="paint12_linear_235_72" x1="15.4233" y1="49.4082" x2="23.9225" y2="49.5331" gradientUnits="userSpaceOnUse">
<stop stop-color="#B85C37"/>
<stop offset="1" stop-color="#3B0610"/>
</linearGradient>
<linearGradient id="paint13_linear_235_72" x1="14.6787" y1="45.9632" x2="24.5137" y2="47.7702" gradientUnits="userSpaceOnUse">
<stop stop-color="#B85C37"/>
<stop offset="1" stop-color="#3B0610"/>
</linearGradient>
<linearGradient id="paint14_linear_235_72" x1="7.00764" y1="35.2054" x2="27.122" y2="38.6041" gradientUnits="userSpaceOnUse">
<stop stop-color="#B85C37"/>
<stop offset="1" stop-color="#3B0610"/>
</linearGradient>
<linearGradient id="paint15_linear_235_72" x1="8.14355" y1="11.821" x2="23.3894" y2="20.2078" gradientUnits="userSpaceOnUse">
<stop stop-color="#B85C37"/>
<stop offset="1" stop-color="#3B0610"/>
</linearGradient>
<linearGradient id="paint16_linear_235_72" x1="22.7726" y1="17.8589" x2="31.4148" y2="23.9963" gradientUnits="userSpaceOnUse">
<stop stop-color="#B85C37"/>
<stop offset="1" stop-color="#3B0610"/>
</linearGradient>
<radialGradient id="paint17_radial_235_72" cx="0" cy="0" r="1" gradientUnits="userSpaceOnUse" gradientTransform="translate(10.8903 18.6623) rotate(-122.629) scale(2.80525 3.63508)">
<stop stop-color="#3B0610"/>
<stop offset="0.9294" stop-color="#B85C37"/>
<stop offset="1" stop-color="#B85C37"/>
</radialGradient>
<radialGradient id="paint18_radial_235_72" cx="0" cy="0" r="1" gradientUnits="userSpaceOnUse" gradientTransform="translate(14.5842 25.5206) rotate(-126.698) scale(4.16252 4.22315)">
<stop stop-color="#3B0610"/>
<stop offset="0.9294" stop-color="#B85C37"/>
<stop offset="1" stop-color="#B85C37"/>
</radialGradient>
<radialGradient id="paint19_radial_235_72" cx="0" cy="0" r="1" gradientUnits="userSpaceOnUse" gradientTransform="translate(11.0969 27.0236) rotate(-124.974) scale(3.40186 3.47056)">
<stop stop-color="#3B0610"/>
<stop offset="0.9294" stop-color="#B85C37"/>
<stop offset="1" stop-color="#B85C37"/>
</radialGradient>
<radialGradient id="paint20_radial_235_72" cx="0" cy="0" r="1" gradientUnits="userSpaceOnUse" gradientTransform="translate(16.2305 42.5576) rotate(-49.7902) scale(2.96255 3.00289)">
<stop stop-color="#3B0610"/>
<stop offset="0.9294" stop-color="#B85C37"/>
<stop offset="1" stop-color="#B85C37"/>
</radialGradient>
<linearGradient id="paint21_linear_235_72" x1="10.591" y1="7.77083" x2="18.6509" y2="10.7714" gradientUnits="userSpaceOnUse">
<stop stop-color="#BF6849"/>
<stop offset="1" stop-color="#A14834"/>
</linearGradient>
<linearGradient id="paint22_linear_235_72" x1="25.5201" y1="16.5286" x2="27.4914" y2="17.2523" gradientUnits="userSpaceOnUse">
<stop stop-color="#BF6849"/>
<stop offset="1" stop-color="#A14834"/>
</linearGradient>
<linearGradient id="paint23_linear_235_72" x1="90.3429" y1="45.8082" x2="98.8267" y2="49.3496" gradientUnits="userSpaceOnUse">
<stop stop-color="#B85C37"/>
<stop offset="1" stop-color="#3B0610"/>
</linearGradient>
<linearGradient id="paint24_linear_235_72" x1="90.0882" y1="46.3838" x2="102.337" y2="47.625" gradientUnits="userSpaceOnUse">
<stop stop-color="#B85C37"/>
<stop offset="1" stop-color="#3B0610"/>
</linearGradient>
<linearGradient id="paint25_linear_235_72" x1="88.0614" y1="35.2058" x2="108.432" y2="37.0054" gradientUnits="userSpaceOnUse">
<stop stop-color="#B85C37"/>
<stop offset="1" stop-color="#3B0610"/>
</linearGradient>
<linearGradient id="paint26_linear_235_72" x1="89.1416" y1="13.5117" x2="109.791" y2="15.336" gradientUnits="userSpaceOnUse">
<stop stop-color="#B85C37"/>
<stop offset="1" stop-color="#3B0610"/>
</linearGradient>
<linearGradient id="paint27_linear_235_72" x1="83.542" y1="17.1821" x2="98.9134" y2="18.5322" gradientUnits="userSpaceOnUse">
<stop stop-color="#B85C37"/>
<stop offset="1" stop-color="#3B0610"/>
</linearGradient>
<radialGradient id="paint28_radial_235_72" cx="0" cy="0" r="1" gradientUnits="userSpaceOnUse" gradientTransform="translate(105.442 15.3782) rotate(-121.085) scale(3.05048 3.86306)">
<stop stop-color="#3B0610"/>
<stop offset="0.9294" stop-color="#B85C37"/>
<stop offset="1" stop-color="#B85C37"/>
</radialGradient>
<radialGradient id="paint29_radial_235_72" cx="0" cy="0" r="1" gradientUnits="userSpaceOnUse" gradientTransform="translate(93.1296 20.0206) rotate(-125.147) scale(4.49464)">
<stop stop-color="#3B0610"/>
<stop offset="0.9294" stop-color="#B85C37"/>
<stop offset="1" stop-color="#B85C37"/>
</radialGradient>
<radialGradient id="paint30_radial_235_72" cx="0" cy="0" r="1" gradientUnits="userSpaceOnUse" gradientTransform="translate(93.1296 20.0206) rotate(-125.147) scale(4.49464)">
<stop stop-color="#3B0610"/>
<stop offset="0.9294" stop-color="#B85C37"/>
<stop offset="1" stop-color="#B85C37"/>
</radialGradient>
<radialGradient id="paint31_radial_235_72" cx="0" cy="0" r="1" gradientUnits="userSpaceOnUse" gradientTransform="translate(93.4075 28.7401) rotate(-123.531) scale(3.68886)">
<stop stop-color="#3B0610"/>
<stop offset="0.9294" stop-color="#B85C37"/>
<stop offset="1" stop-color="#B85C37"/>
</radialGradient>
<linearGradient id="paint32_linear_235_72" x1="96.584" y1="2.05511" x2="101.384" y2="24.8542" gradientUnits="userSpaceOnUse">
<stop stop-color="#BF6849"/>
<stop offset="1" stop-color="#8A3B29"/>
</linearGradient>
<linearGradient id="paint33_linear_235_72" x1="86.548" y1="10.2872" x2="88.9182" y2="21.54" gradientUnits="userSpaceOnUse">
<stop stop-color="#BF6849"/>
<stop offset="1" stop-color="#A14834"/>
</linearGradient>
<radialGradient id="paint34_radial_235_72" cx="0" cy="0" r="1" gradientUnits="userSpaceOnUse" gradientTransform="translate(97.4214 40.3706) rotate(-128.659) scale(3.20169)">
<stop stop-color="#3B0610"/>
<stop offset="0.9294" stop-color="#B85C37"/>
<stop offset="1" stop-color="#B85C37"/>
</radialGradient>
<linearGradient id="paint35_linear_235_72" x1="45.4281" y1="46.9686" x2="53.2937" y2="48.4286" gradientUnits="userSpaceOnUse">
<stop stop-color="#B85C37"/>
<stop offset="1" stop-color="#3B0610"/>
</linearGradient>
<radialGradient id="paint36_radial_235_72" cx="0" cy="0" r="1" gradientUnits="userSpaceOnUse" gradientTransform="translate(47.6109 29.9013) rotate(62.7482) scale(13.54 14.0187)">
<stop stop-color="#FFF9F2"/>
<stop offset="1" stop-color="#E0C39F"/>
</radialGradient>
<linearGradient id="paint37_linear_235_72" x1="45.4289" y1="30.0427" x2="53.4481" y2="37.8614" gradientUnits="userSpaceOnUse">
<stop stop-color="#75634C"/>
<stop offset="1" stop-color="#453A2E"/>
</linearGradient>
<linearGradient id="paint38_linear_235_72" x1="63.3823" y1="46.6294" x2="70.3928" y2="47.7512" gradientUnits="userSpaceOnUse">
<stop stop-color="#B85C37"/>
<stop offset="1" stop-color="#3B0610"/>
</linearGradient>
<radialGradient id="paint39_radial_235_72" cx="0" cy="0" r="1" gradientUnits="userSpaceOnUse" gradientTransform="translate(64.1158 29.5241) rotate(64.2344) scale(14.4633 17.119)">
<stop stop-color="#FFF9F2"/>
<stop offset="1" stop-color="#E0C39F"/>
</radialGradient>
<linearGradient id="paint40_linear_235_72" x1="62.6036" y1="29.5651" x2="70.6228" y2="37.3838" gradientUnits="userSpaceOnUse">
<stop stop-color="#75634C"/>
<stop offset="1" stop-color="#453A2E"/>
</linearGradient>
<linearGradient id="paint41_linear_235_72" x1="22.497" y1="98.2563" x2="22.9008" y2="100.405" gradientUnits="userSpaceOnUse">
<stop stop-color="#FFEBB7"/>
<stop offset="1" stop-color="#C8A559"/>
</linearGradient>
<linearGradient id="paint42_linear_235_72" x1="26.9593" y1="93.277" x2="28.0778" y2="97.516" gradientUnits="userSpaceOnUse">
<stop stop-color="#FFEBB7"/>
<stop offset="1" stop-color="#C8A559"/>
</linearGradient>
<linearGradient id="paint43_linear_235_72" x1="37.2141" y1="89.5399" x2="38.5158" y2="93.107" gradientUnits="userSpaceOnUse">
<stop stop-color="#FFEBB7"/>
<stop offset="1" stop-color="#C8A559"/>
</linearGradient>
<linearGradient id="paint44_linear_235_72" x1="42.6034" y1="87.2158" x2="44.8143" y2="90.4252" gradientUnits="userSpaceOnUse">
<stop stop-color="#F5D689"/>
<stop offset="1" stop-color="#B89448"/>
</linearGradient>
<linearGradient id="paint45_linear_235_72" x1="25.8008" y1="98.4169" x2="28.6248" y2="99.6663" gradientUnits="userSpaceOnUse">
<stop stop-color="#FFEBB7"/>
<stop offset="1" stop-color="#C8A559"/>
</linearGradient>
<linearGradient id="paint46_linear_235_72" x1="20.0628" y1="90.0135" x2="27.4104" y2="90.459" gradientUnits="userSpaceOnUse">
<stop stop-color="#FFEBB7"/>
<stop offset="1" stop-color="#C8A559"/>
</linearGradient>
<linearGradient id="paint47_linear_235_72" x1="34.9819" y1="80.7489" x2="34.9553" y2="87.1501" gradientUnits="userSpaceOnUse">
<stop stop-color="#FFEBB7"/>
<stop offset="1" stop-color="#C8A559"/>
</linearGradient>
<linearGradient id="paint48_linear_235_72" x1="44.6457" y1="81.3278" x2="45.8925" y2="86.6771" gradientUnits="userSpaceOnUse">
<stop stop-color="#F5D689"/>
<stop offset="1" stop-color="#B89448"/>
</linearGradient>
<linearGradient id="paint49_linear_235_72" x1="0.757869" y1="97.832" x2="2.59531" y2="101.707" gradientUnits="userSpaceOnUse">
<stop stop-color="#FFEBB7"/>
<stop offset="1" stop-color="#C8A559"/>
</linearGradient>
<linearGradient id="paint50_linear_235_72" x1="11.0227" y1="84.8831" x2="15.1405" y2="93.5185" gradientUnits="userSpaceOnUse">
<stop stop-color="#FFEBB7"/>
<stop offset="1" stop-color="#C8A559"/>
</linearGradient>
<linearGradient id="paint51_linear_235_72" x1="31.483" y1="78.9556" x2="32.5727" y2="85.1626" gradientUnits="userSpaceOnUse">
<stop stop-color="#FFEBB7"/>
<stop offset="1" stop-color="#C8A559"/>
</linearGradient>
<linearGradient id="paint52_linear_235_72" x1="45.0299" y1="76.2325" x2="46.8852" y2="81.7095" gradientUnits="userSpaceOnUse">
<stop stop-color="#F5D689"/>
<stop offset="1" stop-color="#B89448"/>
</linearGradient>
<linearGradient id="paint53_linear_235_72" x1="88.1724" y1="98.8939" x2="86.6914" y2="100.512" gradientUnits="userSpaceOnUse">
<stop stop-color="#FFEBB7"/>
<stop offset="1" stop-color="#C8A559"/>
</linearGradient>
<linearGradient id="paint54_linear_235_72" x1="90.2743" y1="93.3151" x2="86.0068" y2="94.3235" gradientUnits="userSpaceOnUse">
<stop stop-color="#FFEBB7"/>
<stop offset="1" stop-color="#C8A559"/>
</linearGradient>
<linearGradient id="paint55_linear_235_72" x1="80.0058" y1="87.1094" x2="79.6406" y2="90.8878" gradientUnits="userSpaceOnUse">
<stop stop-color="#FFEBB7"/>
<stop offset="1" stop-color="#C8A559"/>
</linearGradient>
<linearGradient id="paint56_linear_235_72" x1="74.0889" y1="86.2882" x2="72.7541" y2="89.9485" gradientUnits="userSpaceOnUse">
<stop stop-color="#F5D689"/>
<stop offset="1" stop-color="#B89448"/>
</linearGradient>
<linearGradient id="paint57_linear_235_72" x1="99.5725" y1="97.3748" x2="96.5601" y2="98.0064" gradientUnits="userSpaceOnUse">
<stop stop-color="#FFEBB7"/>
<stop offset="1" stop-color="#C8A559"/>
</linearGradient>
<linearGradient id="paint58_linear_235_72" x1="100.838" y1="87.8333" x2="94.8925" y2="92.0191" gradientUnits="userSpaceOnUse">
<stop stop-color="#FFEBB7"/>
<stop offset="1" stop-color="#C8A559"/>
</linearGradient>
<linearGradient id="paint59_linear_235_72" x1="83.9086" y1="80.7578" x2="83.9581" y2="87.1556" gradientUnits="userSpaceOnUse">
<stop stop-color="#FFEBB7"/>
<stop offset="1" stop-color="#C8A559"/>
</linearGradient>
<linearGradient id="paint60_linear_235_72" x1="73.7526" y1="81.2229" x2="72.5257" y2="86.5738" gradientUnits="userSpaceOnUse">
<stop stop-color="#F5D689"/>
<stop offset="1" stop-color="#B89448"/>
</linearGradient>
<linearGradient id="paint61_linear_235_72" x1="102.156" y1="99.7595" x2="98.3425" y2="101.727" gradientUnits="userSpaceOnUse">
<stop stop-color="#FFEBB7"/>
<stop offset="1" stop-color="#C8A559"/>
</linearGradient>
<linearGradient id="paint62_linear_235_72" x1="104.968" y1="85.2922" x2="95.7741" y2="87.9132" gradientUnits="userSpaceOnUse">
<stop stop-color="#FFEBB7"/>
<stop offset="1" stop-color="#C8A559"/>
</linearGradient>
<linearGradient id="paint63_linear_235_72" x1="85.2323" y1="74.9451" x2="85.5487" y2="81.2448" gradientUnits="userSpaceOnUse">
<stop stop-color="#FFEBB7"/>
<stop offset="1" stop-color="#C8A559"/>
</linearGradient>
<linearGradient id="paint64_linear_235_72" x1="72.6424" y1="75.1633" x2="72.0271" y2="80.9164" gradientUnits="userSpaceOnUse">
<stop stop-color="#F5D689"/>
<stop offset="1" stop-color="#B89448"/>
</linearGradient>
<clipPath id="clip0_235_72">
<rect width="109.37" height="107.11" fill="white"/>
</clipPath>
</defs>
</svg>
